<svg width="32" height="32" viewBox="0 0 32 32" fill="none" xmlns="http://www.w3.org/2000/svg">
<rect width="32" height="32" rx="4" fill="#E9F4FD" fill-opacity="0.5"/>
<path d="M24.6859 8.79909C24.6684 8.6729 24.6143 8.55459 24.5304 8.45871C24.4465 8.36283 24.3364 8.29355 24.2137 8.25939L16.1754 6.02392C16.0608 5.99203 15.9396 5.99203 15.825 6.02392L7.78668 8.25939C7.66393 8.29353 7.55384 8.3628 7.46993 8.45869C7.38603 8.55457 7.33199 8.67289 7.31444 8.79909C7.26782 9.13434 6.2042 17.0556 8.93231 20.9961C11.6572 24.932 15.677 25.9406 15.8467 25.9817C15.9476 26.0061 16.0528 26.0061 16.1537 25.9817C16.3235 25.9406 20.3433 24.932 23.0681 20.9961C25.7962 17.0556 24.7326 9.13442 24.6859 8.79909ZM21.1839 13.4236L15.7009 18.9065C15.5734 19.0341 15.406 19.098 15.2388 19.098C15.0716 19.098 14.9042 19.0342 14.7767 18.9065L11.3866 15.5165C11.3259 15.4558 11.2777 15.3838 11.2449 15.3045C11.212 15.2252 11.1951 15.1402 11.1951 15.0543C11.1951 14.9685 11.212 14.8835 11.2449 14.8042C11.2777 14.7249 11.3259 14.6529 11.3866 14.5922L12.0597 13.9191C12.1823 13.7965 12.3485 13.7277 12.5218 13.7277C12.6952 13.7277 12.8614 13.7965 12.984 13.9191L15.2388 16.1739L19.5865 11.8261C19.6472 11.7654 19.7192 11.7172 19.7985 11.6844C19.8778 11.6515 19.9628 11.6346 20.0486 11.6346C20.1345 11.6346 20.2195 11.6515 20.2988 11.6844C20.3781 11.7172 20.4501 11.7654 20.5108 11.8261L21.1839 12.4992C21.2446 12.5599 21.2927 12.632 21.3256 12.7113C21.3584 12.7906 21.3753 12.8756 21.3753 12.9614C21.3753 13.0472 21.3584 13.1322 21.3256 13.2115C21.2927 13.2908 21.2446 13.3629 21.1839 13.4236Z" fill="#66AEEE"/>
</svg>
