<svg width="32" height="32" viewBox="0 0 32 32" fill="none" xmlns="http://www.w3.org/2000/svg">
<rect width="32" height="32" rx="4" fill="#E9F4FD" fill-opacity="0.5"/>
<g clip-path="url(#clip0_116_215)">
<path d="M16.8749 15.95L15.9999 14.6312L15.1249 15.95C15.0457 16.0709 14.9271 16.1606 14.7892 16.2039C14.6514 16.2473 14.5027 16.2414 14.3687 16.1875L13.1187 15.7L13.6937 17.875H18.3062L18.8499 15.7L17.6312 16.1875C17.4971 16.2414 17.3484 16.2473 17.2106 16.2039C17.0727 16.1606 16.9541 16.0709 16.8749 15.95Z" fill="#66AEEE"/>
<path d="M16 10.375C14.8875 10.375 13.7999 10.7049 12.8749 11.323C11.9499 11.9411 11.2289 12.8196 10.8032 13.8474C10.3774 14.8752 10.266 16.0062 10.4831 17.0974C10.7001 18.1885 11.2359 19.1908 12.0225 19.9775C12.8092 20.7641 13.8115 21.2999 14.9026 21.5169C15.9938 21.734 17.1248 21.6226 18.1526 21.1968C19.1804 20.7711 20.0589 20.0501 20.677 19.1251C21.2951 18.2001 21.625 17.1125 21.625 16C21.625 14.5082 21.0324 13.0774 19.9775 12.0225C18.9226 10.9676 17.4918 10.375 16 10.375ZM20.375 14.8187L19.4188 18.65C19.3845 18.7887 19.3038 18.9114 19.1901 18.9979C19.0764 19.0843 18.9365 19.1292 18.7938 19.125H13.2063C13.0635 19.1292 12.9236 19.0843 12.8099 18.9979C12.6962 18.9114 12.6155 18.7887 12.5813 18.65L11.625 14.8187C11.5973 14.7072 11.601 14.5902 11.6355 14.4806C11.67 14.371 11.734 14.2731 11.8206 14.1975C11.9071 14.1219 12.0128 14.0717 12.1261 14.0523C12.2393 14.0329 12.3557 14.0451 12.4625 14.0875L14.3375 14.8375L15.4563 13.1562C15.5134 13.0712 15.5906 13.0015 15.6811 12.9533C15.7716 12.9051 15.8725 12.8799 15.975 12.8799C16.0775 12.8799 16.1784 12.9051 16.2689 12.9533C16.3594 13.0015 16.4366 13.0712 16.4938 13.1562L17.6125 14.8375L19.4875 14.0875C19.5963 14.031 19.7192 14.0078 19.8411 14.0207C19.9629 14.0335 20.0783 14.0819 20.1729 14.1599C20.2675 14.2378 20.337 14.3418 20.373 14.4589C20.4089 14.5761 20.4096 14.7012 20.375 14.8187Z" fill="#66AEEE"/>
<path d="M24.5438 13.5C24.3818 13.2188 24.2358 12.9288 24.1062 12.6312C23.9812 12.3312 23.8875 12.0062 23.7812 11.6687C23.5967 10.8141 23.2014 10.0192 22.6313 9.35625C21.9683 8.78612 21.1734 8.39079 20.3188 8.20625C19.975 8.1 19.6563 8.00625 19.3563 7.88125C19.0627 7.7566 18.7768 7.61469 18.5 7.45625C17.7503 6.97242 16.8902 6.68644 16 6.625C15.11 6.68751 14.2502 6.97341 13.5 7.45625C13.2188 7.61816 12.9288 7.76422 12.6312 7.89375C12.3312 8.01875 12.0062 8.1125 11.6687 8.21875C10.8141 8.40329 10.0192 8.79862 9.35625 9.36875C8.78612 10.0317 8.39079 10.8266 8.20625 11.6813C8.1 12.025 8.00625 12.3438 7.88125 12.6438C7.75537 12.9367 7.61349 13.2226 7.45625 13.5C6.97341 14.2502 6.68751 15.11 6.625 16C6.68751 16.89 6.97341 17.7498 7.45625 18.5C7.61136 18.7776 7.75116 19.0634 7.875 19.3563C8 19.6563 8.09375 19.9812 8.2 20.3188C8.38454 21.1734 8.77987 21.9683 9.35 22.6313C10.0129 23.2014 10.8078 23.5967 11.6625 23.7812C12.0063 23.8875 12.325 23.9812 12.625 24.1062C12.9219 24.237 13.2119 24.3831 13.4937 24.5438C14.2453 25.0286 15.1077 25.3146 16 25.375C16.8902 25.3136 17.7503 25.0276 18.5 24.5438C18.7819 24.3831 19.0718 24.237 19.3687 24.1062C19.6687 23.9812 19.9938 23.8875 20.3313 23.7812C21.1859 23.5967 21.9808 23.2014 22.6437 22.6313C23.2139 21.9683 23.6092 21.1734 23.7937 20.3188C23.9 19.975 23.9937 19.6563 24.1187 19.3563C24.2483 19.0587 24.3943 18.7687 24.5562 18.4875C25.0327 17.7398 25.3142 16.8845 25.375 16C25.3125 15.11 25.0266 14.2502 24.5438 13.5ZM16 22.875C14.6403 22.875 13.311 22.4718 12.1805 21.7164C11.0499 20.9609 10.1687 19.8872 9.64833 18.6309C9.12798 17.3747 8.99183 15.9924 9.2571 14.6588C9.52237 13.3251 10.1772 12.1001 11.1386 11.1386C12.1001 10.1772 13.3251 9.52237 14.6588 9.2571C15.9924 8.99183 17.3747 9.12798 18.6309 9.64833C19.8872 10.1687 20.9609 11.0499 21.7164 12.1805C22.4718 13.311 22.875 14.6403 22.875 16C22.875 17.8234 22.1507 19.572 20.8614 20.8614C19.572 22.1507 17.8234 22.875 16 22.875Z" fill="#66AEEE"/>
</g>
<defs>
<clipPath id="clip0_116_215">
<rect width="20" height="20" fill="white" transform="translate(6 6)"/>
</clipPath>
</defs>
</svg>
