<svg width="32" height="32" viewBox="0 0 32 32" fill="none" xmlns="http://www.w3.org/2000/svg">
<rect width="32" height="32" rx="4" fill="#E9F4FD" fill-opacity="0.5"/>
<g clip-path="url(#clip0_116_185)">
<path d="M16.9613 18.2661C16.8998 18.2849 16.8359 18.2943 16.7716 18.2941C16.7313 18.2936 16.691 18.29 16.6513 18.2833L17.3097 19.5949L17.4655 19.1781C17.49 19.1121 17.5362 19.0563 17.5965 19.0199C17.6568 18.9835 17.7276 18.9685 17.7975 18.9775L18.2027 19.0291L17.4524 17.8144C17.3507 18.0209 17.1755 18.1821 16.9613 18.2661ZM15.0386 18.2661C14.8244 18.1821 14.6494 18.021 14.5478 17.8145L13.7974 19.0291L14.2025 18.9775C14.2724 18.9685 14.3433 18.9835 14.4036 19.0199C14.4639 19.0563 14.5101 19.1121 14.5347 19.1781L14.6905 19.5949L15.3489 18.2833C15.3091 18.29 15.2688 18.2937 15.2285 18.2941C15.1641 18.2942 15.1001 18.2849 15.0386 18.2661Z" fill="#66AEEE"/>
<path d="M16 16.073C16.3452 16.073 16.625 15.7843 16.625 15.4282C16.625 15.072 16.3452 14.7833 16 14.7833C15.6548 14.7833 15.375 15.072 15.375 15.4282C15.375 15.7843 15.6548 16.073 16 16.073Z" fill="#66AEEE"/>
<path d="M18.0453 14.807C17.9993 14.6391 17.9907 14.4631 18.02 14.2914C18.0335 14.2099 18.0351 14.1268 18.0248 14.0448C17.94 14.009 17.851 13.984 17.76 13.9705C17.5862 13.9455 17.4192 13.886 17.2687 13.7955C17.1333 13.6893 17.0218 13.5558 16.9412 13.4037C16.8975 13.3323 16.8154 13.1994 16.7772 13.1877C16.6856 13.202 16.5965 13.2301 16.5133 13.2709C16.3527 13.349 16.1782 13.3947 16 13.4052C15.8217 13.3947 15.6473 13.349 15.4867 13.2709C15.4049 13.231 15.3178 13.2029 15.2281 13.1875C15.1845 13.1994 15.0995 13.3373 15.0589 13.4036C14.9783 13.5558 14.8666 13.6893 14.7311 13.7956C14.5806 13.886 14.4136 13.9455 14.2398 13.9705C14.1465 13.9834 14.0556 14.0106 13.9706 14.0513C13.9645 14.1313 13.9677 14.2118 13.98 14.2911C14.0092 14.463 14.0004 14.6392 13.9542 14.8073C13.8883 14.9651 13.7894 15.107 13.6642 15.2234C13.5989 15.2841 13.5434 15.3544 13.4995 15.432C13.5458 15.5056 13.6011 15.5731 13.6642 15.633C13.7895 15.7495 13.8885 15.8916 13.9544 16.0495C14.0004 16.2175 14.0092 16.3935 13.98 16.5652C13.9664 16.6466 13.9647 16.7296 13.9751 16.8116C14.0599 16.8475 14.1489 16.8726 14.24 16.8862C14.4136 16.9112 14.5806 16.9705 14.7309 17.0609C14.8663 17.1672 14.9779 17.3007 15.0584 17.4528C15.1025 17.5242 15.1844 17.657 15.2225 17.6689H15.2228C15.3145 17.6545 15.4035 17.6265 15.4869 17.5856C15.6474 17.5076 15.8218 17.4621 16 17.4517C16.1782 17.4621 16.3525 17.5076 16.5131 17.5856C16.5948 17.6256 16.6819 17.6537 16.7715 17.6691L16.7781 17.6686C16.8153 17.6572 16.9003 17.5192 16.9411 17.453C17.0216 17.3009 17.1332 17.1674 17.2686 17.0611C17.419 16.9706 17.586 16.9111 17.7598 16.8861C17.8533 16.8732 17.9441 16.8459 18.0292 16.8052C18.0353 16.725 18.0321 16.6444 18.0198 16.565C17.9907 16.3933 17.9994 16.2173 18.0454 16.0494C18.1114 15.8914 18.2103 15.7494 18.3356 15.6328C18.4008 15.5722 18.4564 15.5019 18.5003 15.4244C18.4539 15.3509 18.3986 15.2834 18.3356 15.2236C18.2103 15.107 18.1113 14.965 18.0454 14.807H18.0453ZM16 16.6981C15.748 16.7021 15.5005 16.631 15.289 16.4939C15.0776 16.3568 14.9117 16.1598 14.8125 15.9282C14.7133 15.6965 14.6853 15.4405 14.732 15.1928C14.7787 14.9452 14.8981 14.717 15.0749 14.5374C15.2516 14.3578 15.4779 14.2348 15.7248 14.1842C15.9717 14.1335 16.228 14.1575 16.4613 14.253C16.6945 14.3485 16.894 14.5113 17.0345 14.7205C17.1749 14.9298 17.2499 15.1761 17.25 15.4281C17.2522 15.7622 17.1219 16.0835 16.8876 16.3216C16.6532 16.5597 16.334 16.6951 16 16.6981Z" fill="#66AEEE"/>
<path d="M22.7906 9.11564C22.15 8.96564 21.7672 8.45783 21.7672 7.75783C21.7672 7.22814 22.1047 6.84064 22.7703 6.60783C22.84 6.58346 22.8989 6.53521 22.9364 6.47161C22.974 6.40802 22.9878 6.33318 22.9754 6.26037C22.9631 6.18756 22.9253 6.12147 22.8689 6.07382C22.8125 6.02616 22.741 6.00002 22.6672 6.00001H10.8609C10.3615 5.99814 9.88173 6.19454 9.52697 6.54608C9.1722 6.89762 8.97144 7.37558 8.96875 7.87501V25.0625C8.96896 25.3111 9.0678 25.5494 9.24357 25.7252C9.41934 25.901 9.65767 25.9998 9.90625 26H22.0938C22.3423 25.9998 22.5807 25.901 22.7564 25.7252C22.9322 25.5494 23.031 25.3111 23.0312 25.0625V9.42033C23.0313 9.34986 23.0076 9.28143 22.9639 9.22613C22.9203 9.17083 22.8592 9.1319 22.7906 9.11564ZM16.1562 24.2813H13.9688C13.8859 24.2813 13.8064 24.2483 13.7478 24.1897C13.6892 24.1311 13.6562 24.0516 13.6562 23.9688C13.6562 23.8859 13.6892 23.8064 13.7478 23.7478C13.8064 23.6892 13.8859 23.6563 13.9688 23.6563H16.1562C16.2391 23.6563 16.3186 23.6892 16.3772 23.7478C16.4358 23.8064 16.4688 23.8859 16.4688 23.9688C16.4688 24.0516 16.4358 24.1311 16.3772 24.1897C16.3186 24.2483 16.2391 24.2813 16.1562 24.2813ZM18.0312 23.0313H13.9688C13.8859 23.0313 13.8064 22.9983 13.7478 22.9397C13.6892 22.8811 13.6562 22.8016 13.6562 22.7188C13.6562 22.6359 13.6892 22.5564 13.7478 22.4978C13.8064 22.4392 13.8859 22.4063 13.9688 22.4063H18.0312C18.1141 22.4063 18.1936 22.4392 18.2522 22.4978C18.3108 22.5564 18.3438 22.6359 18.3438 22.7188C18.3438 22.8016 18.3108 22.8811 18.2522 22.9397C18.1936 22.9983 18.1141 23.0313 18.0312 23.0313ZM19.075 19.5906C19.0432 19.6402 18.998 19.6798 18.9446 19.7047C18.8912 19.7296 18.8319 19.7388 18.7734 19.7313L17.9641 19.6281L17.6437 20.4844C17.6084 20.5695 17.5411 20.6374 17.4563 20.6735C17.3838 20.6965 17.3057 20.6933 17.2354 20.6644C17.1651 20.6356 17.1072 20.5829 17.0719 20.5156C17.0703 20.511 16 18.3797 16 18.3797L14.9281 20.5156C14.8847 20.5906 14.816 20.6476 14.7344 20.6766C14.6587 20.6975 14.578 20.6894 14.508 20.6538C14.4381 20.6183 14.3839 20.5578 14.3562 20.4844L14.0359 19.6281L13.2266 19.7313C13.1681 19.7387 13.1088 19.7294 13.0555 19.7045C13.0021 19.6796 12.9569 19.6401 12.925 19.5906C12.8932 19.541 12.876 19.4835 12.8754 19.4246C12.8748 19.3658 12.891 19.3079 12.9219 19.2578L14.0203 17.4781C13.8102 17.4492 13.6174 17.3461 13.4766 17.1875C13.3109 16.9719 13.3375 16.711 13.3578 16.5016C13.3725 16.419 13.374 16.3346 13.3625 16.2516C13.3202 16.1815 13.2687 16.1174 13.2094 16.061C13.0594 15.9031 12.875 15.7063 12.875 15.4281C12.875 15.1516 13.0594 14.9531 13.2094 14.7953C13.2687 14.7389 13.3202 14.6748 13.3625 14.6047C13.374 14.5216 13.3725 14.4373 13.3578 14.3547C13.3375 14.1453 13.3109 13.8844 13.4766 13.6688C13.6391 13.4578 13.9016 13.4031 14.1125 13.3578C14.2036 13.3443 14.2924 13.3186 14.3766 13.2813C14.436 13.2205 14.4865 13.1515 14.5266 13.0766C14.6304 12.8561 14.8133 12.6826 15.0391 12.5906C15.1003 12.5717 15.164 12.5622 15.2281 12.5625C15.4008 12.5727 15.5698 12.6174 15.725 12.6938C15.8118 12.736 15.9045 12.765 16 12.7797C16.0955 12.765 16.1882 12.736 16.275 12.6938C16.4302 12.6174 16.5992 12.5727 16.7719 12.5625C16.836 12.5622 16.8997 12.5717 16.9609 12.5906C17.187 12.6821 17.3701 12.8557 17.4734 13.0766C17.5135 13.1515 17.564 13.2205 17.6234 13.2813C17.7076 13.3186 17.7964 13.3443 17.8875 13.3578C18.0984 13.4031 18.3609 13.4578 18.5234 13.6688C18.6891 13.8844 18.6625 14.1453 18.6422 14.3547C18.6275 14.4373 18.626 14.5216 18.6375 14.6047C18.6793 14.6751 18.7309 14.7393 18.7906 14.7953C18.9406 14.9531 19.125 15.1516 19.125 15.4281C19.125 15.7063 18.9406 15.9031 18.7906 16.061C18.7309 16.117 18.6793 16.1811 18.6375 16.2516C18.626 16.3346 18.6275 16.419 18.6422 16.5016C18.6625 16.711 18.6891 16.9719 18.5234 17.1875C18.3826 17.3461 18.1898 17.4492 17.9797 17.4781L19.0781 19.2578C19.1094 19.3078 19.1257 19.3657 19.1252 19.4247C19.1246 19.4837 19.1072 19.5412 19.075 19.5906ZM11.3125 9.12501V11.9375C11.3125 12.0204 11.2796 12.0999 11.221 12.1585C11.1624 12.2171 11.0829 12.25 11 12.25C10.9171 12.25 10.8376 12.2171 10.779 12.1585C10.7204 12.0999 10.6875 12.0204 10.6875 11.9375V9.11408C10.3864 9.07427 10.1098 8.92691 9.90878 8.6992C9.70777 8.47148 9.59588 8.17875 9.59375 7.87501C9.59652 7.54137 9.73146 7.22243 9.969 6.98811C10.2065 6.7538 10.5273 6.62322 10.8609 6.62501H21.5828C21.3407 6.88178 21.1902 7.21137 21.1547 7.56251H11.4688C11.3859 7.56251 11.3064 7.59544 11.2478 7.65404C11.1892 7.71265 11.1562 7.79213 11.1562 7.87501C11.1562 7.95789 11.1892 8.03738 11.2478 8.09598C11.3064 8.15459 11.3859 8.18751 11.4688 8.18751H21.1844C21.2466 8.53442 21.401 8.85821 21.6313 9.12501H11.3125Z" fill="#66AEEE"/>
</g>
<defs>
<clipPath id="clip0_116_185">
<rect width="20" height="20" fill="white" transform="translate(6 6)"/>
</clipPath>
</defs>
</svg>
