<svg width="32" height="32" viewBox="0 0 32 32" fill="none" xmlns="http://www.w3.org/2000/svg">
<rect width="32" height="32" rx="4" fill="#E9F4FD" fill-opacity="0.5"/>
<g clip-path="url(#clip0_116_487)">
<path d="M25.9929 9.83627C25.9929 12.8748 24.6682 15.0823 24.6125 15.1744C24.5721 15.2409 24.519 15.2988 24.4562 15.3447C24.3934 15.3907 24.3222 15.4238 24.2466 15.4422C24.171 15.4606 24.0925 15.4639 24.0156 15.452C23.9388 15.44 23.865 15.413 23.7985 15.3725C23.664 15.291 23.5673 15.1594 23.5297 15.0066C23.4921 14.8538 23.5167 14.6924 23.5981 14.5577C23.6105 14.5376 24.806 12.5282 24.806 9.83627C24.806 8.30115 23.8078 7.18694 22.4321 7.18694C21.8026 7.18755 21.199 7.43796 20.7539 7.88318C20.3088 8.32841 20.0586 8.93205 20.0582 9.56159C20.0582 10.1195 20.3283 11.537 20.4319 12.0361C20.4565 12.1871 20.4219 12.3418 20.3353 12.4679C20.2487 12.5941 20.1168 12.6819 19.967 12.7133C19.8173 12.7446 19.6612 12.7169 19.5313 12.636C19.4014 12.5551 19.3077 12.4272 19.2698 12.279C19.2288 12.0833 18.8697 10.3431 18.8697 9.56159C18.871 8.61724 19.2467 7.71193 19.9145 7.04425C20.5824 6.37657 21.4877 6.00102 22.4321 6C24.4617 6 25.9929 7.64887 25.9929 9.83627ZM22.5327 10.7702C22.7687 12.7425 23.1107 16.5857 22.7176 16.9773L14.0933 25.6023C13.9672 25.7286 13.8173 25.8287 13.6524 25.8971C13.4875 25.9654 13.3107 26.0005 13.1322 26.0004C12.9537 26.0004 12.7769 25.9651 12.612 25.8966C12.4472 25.8282 12.2974 25.7279 12.1713 25.6015L6.40455 19.8355C6.27831 19.7093 6.17817 19.5595 6.10984 19.3946C6.04152 19.2297 6.00635 19.053 6.00635 18.8745C6.00635 18.696 6.04152 18.5193 6.10984 18.3544C6.17817 18.1895 6.27831 18.0397 6.40455 17.9135L15.0296 9.28923C15.1665 9.15227 16.6583 9.14608 18.3358 9.23352C18.3266 9.34417 18.3026 9.44862 18.3026 9.56159C18.3026 9.9918 18.3977 10.6588 18.4976 11.2453C18.3551 11.4567 18.2641 11.6986 18.232 11.9515C18.1999 12.2044 18.2275 12.4613 18.3126 12.7016C18.3978 12.9419 18.5381 13.1589 18.7222 13.3352C18.9064 13.5115 19.1294 13.6422 19.3732 13.7167C19.617 13.7913 19.8749 13.8076 20.1261 13.7645C20.3774 13.7213 20.615 13.6199 20.82 13.4683C21.025 13.3167 21.1916 13.1191 21.3064 12.8915C21.4212 12.6639 21.4811 12.4125 21.4812 12.1575C21.4812 11.6028 21.2034 11.1137 20.7801 10.8197C20.6935 10.3036 20.6238 9.80532 20.6238 9.56159C20.6238 9.50898 20.6347 9.46023 20.6393 9.40839C20.8459 9.43005 21.0494 9.45249 21.2421 9.47648C22.3818 9.61653 22.3934 9.61421 22.5327 10.7702ZM17.9358 17.2249C17.802 16.8527 17.5791 16.4062 17.0955 15.8924L17.7501 15.2371L17.0212 14.509L16.3148 15.2162C15.3693 14.5686 14.3943 14.6212 13.7328 15.2827C13.0116 16.0039 13.1819 16.9192 13.7111 17.9831C14.0748 18.7197 14.1413 19.1438 13.8589 19.4262C13.5687 19.7163 13.1006 19.5902 12.6758 19.1662C12.193 18.6834 11.9098 18.0868 11.769 17.6032L10.6749 18.2516C10.8018 18.6896 11.1438 19.314 11.6266 19.8278L10.9132 20.5419L11.6413 21.2708L12.4081 20.5048C13.4194 21.2182 14.4392 21.1223 15.1008 20.4607C15.7778 19.7821 15.8374 19.0238 15.2571 17.8191C14.8547 16.9556 14.758 16.5316 14.9963 16.294C15.2052 16.0851 15.5766 16.0255 16.0602 16.5091C16.5964 17.0453 16.7744 17.5661 16.8711 17.8415L17.9358 17.2249Z" fill="#66AEEE"/>
</g>
<defs>
<clipPath id="clip0_116_487">
<rect width="20" height="20" fill="white" transform="translate(6 6)"/>
</clipPath>
</defs>
</svg>
