<svg width="32" height="32" viewBox="0 0 32 32" fill="none" xmlns="http://www.w3.org/2000/svg">
<rect width="32" height="32" rx="4" fill="#E9F4FD" fill-opacity="0.5"/>
<path d="M16.589 12.6554C16.5261 13.1666 17.0812 13.8387 18.2635 14.1344C19.5284 14.4504 19.8855 15.1334 20.2005 15.7359C20.4342 16.183 20.6405 16.5771 21.2035 16.8685C21.5539 15.8908 21.6884 14.8489 21.5978 13.8143C21.5072 12.7797 21.1936 11.777 20.6786 10.8752C20.0376 11.407 19.0931 11.9375 17.8752 11.9375C17.1476 11.9375 16.6427 12.2193 16.589 12.6554ZM15.0102 9.57666C15.1554 9.79443 15.3021 9.81732 15.9943 9.54959C16.5106 9.34994 17.1532 9.10142 17.7361 9.49001C18.1448 9.76248 18.8192 9.38478 19.2363 9.09134C18.3711 8.31251 17.3294 7.75577 16.2011 7.46912C15.0713 8.64064 14.849 9.33486 15.0102 9.57666ZM9.57836 16.7648C10.0773 16.5346 10.3752 15.6645 10.3752 14.4375C10.3752 13.1018 11.0441 12.8164 11.6343 12.5647C12.1442 12.3472 12.6258 12.1417 12.8873 11.2267C13.2796 9.854 11.7259 8.70236 10.883 8.19244C9.5636 8.94366 8.51583 10.0933 7.8899 11.4766C7.26397 12.8599 7.09201 14.4058 7.39867 15.8928C8.34758 16.6839 9.10016 16.9854 9.57836 16.7648Z" fill="#66AEEE"/>
<path d="M11.606 16.9092C11.6 16.5693 11.7134 16.2782 11.9341 16.0679C12.3612 15.6606 13.0766 15.6542 13.6738 16.0525C13.8213 16.1507 13.9565 16.1374 14.5567 15.5923C14.8496 15.3263 15.1524 15.0513 15.5106 14.9072C15.9655 14.7242 16.4063 14.7995 16.8207 15.1309C17.5063 15.6794 17.5334 16.383 17.3681 17.1066L18.9924 16.3422C19.034 16.3226 19.0794 16.3125 19.1255 16.3125C19.1714 16.3125 19.2169 16.3226 19.2585 16.3422L20.0698 16.724C19.8917 16.4936 19.7659 16.2532 19.6468 16.0255C19.356 15.4692 19.1048 14.9887 18.1122 14.7407C17.4169 14.5668 16.8466 14.2638 16.4631 13.8642C16.0902 13.4758 15.9147 13.0193 15.9689 12.5791C16.0635 11.8096 16.8118 11.3125 17.8753 11.3125C18.9505 11.3125 19.785 10.8195 20.3411 10.3423C20.1435 10.0584 19.9258 9.78895 19.6897 9.53614C18.7683 10.2197 17.9579 10.389 17.3894 10.01C17.0981 9.81575 16.7371 9.93243 16.2198 10.1325C15.9424 10.2397 15.6118 10.3675 15.2929 10.3676C14.9983 10.3676 14.7137 10.2585 14.4903 9.92333C14.1079 9.34985 14.4413 8.47712 15.48 7.32567C14.1395 7.12942 12.7709 7.31613 11.5319 7.86427C11.9506 8.14329 12.4174 8.5088 12.7989 8.9486C13.4925 9.7479 13.7244 10.5721 13.4883 11.3984C13.145 12.5997 12.4433 12.899 11.8796 13.1395C11.3313 13.3734 11.0003 13.5146 11.0003 14.4375C11.0003 15.3187 10.8496 16.8666 9.84014 17.3323C9.65317 17.4177 9.44974 17.4611 9.2442 17.4593C8.78807 17.4593 8.26463 17.266 7.67822 16.8812C8.08858 18.009 8.77377 19.0167 9.67175 19.8129C10.5697 20.6092 11.6521 21.1689 12.821 21.4414C12.7373 20.4267 12.5243 18.9392 11.9823 18.0356C11.7386 17.6297 11.6121 17.2506 11.606 16.9092Z" fill="#66AEEE"/>
<path d="M13.5003 19.1249C13.5003 19.0656 13.5172 19.0075 13.549 18.9575C13.5808 18.9074 13.6261 18.8674 13.6798 18.8422L16.6206 17.4583C16.9424 16.4434 16.891 15.9877 16.4301 15.6189C15.9616 15.2439 15.6274 15.4639 14.9767 16.0549C14.5192 16.4705 13.9497 16.9875 13.327 16.5724C12.9859 16.345 12.5725 16.3224 12.3653 16.5201C12.1409 16.7341 12.1981 17.1803 12.5183 17.7141C12.8035 18.1895 13.2945 19.3114 13.4569 21.5577C14.0932 21.6451 14.7384 21.6473 15.3753 21.5643V20.2056L13.6798 19.4077C13.6261 19.3824 13.5808 19.3424 13.549 19.2924C13.5172 19.2423 13.5003 19.1842 13.5003 19.1249ZM19.1253 21.9374C19.0793 21.9374 19.0339 21.9273 18.9923 21.9077L16.0003 20.4997V23.3122C17.0412 23.8515 18.0917 24.1249 19.1253 24.1249C20.159 24.1249 21.2095 23.8515 22.2503 23.3122V20.4997L19.2584 21.9077C19.2168 21.9273 19.1713 21.9374 19.1253 21.9374Z" fill="#66AEEE"/>
<path d="M24.1255 20.9999H24.7505V19.1249C24.7505 19.0421 24.7175 18.9626 24.6589 18.904C24.6003 18.8454 24.5208 18.8124 24.438 18.8124H23.04L19.1255 16.9703L14.5469 19.1249L19.1255 21.2796L23.04 19.4374H24.1255V20.9999ZM24.438 22.8749C24.438 22.8749 23.813 23.1874 23.813 24.7499H25.063C25.063 23.1874 24.438 22.8749 24.438 22.8749Z" fill="#66AEEE"/>
<path d="M24.4375 22.875C24.7827 22.875 25.0625 22.5952 25.0625 22.25C25.0625 21.9048 24.7827 21.625 24.4375 21.625C24.0923 21.625 23.8125 21.9048 23.8125 22.25C23.8125 22.5952 24.0923 22.875 24.4375 22.875Z" fill="#66AEEE"/>
</svg>
