<svg width="20" height="20" viewBox="0 0 20 20" fill="none" xmlns="http://www.w3.org/2000/svg">
<path d="M19.2238 5.84387L15.4738 1.46887C15.3474 1.34081 15.1788 1.26306 14.9994 1.25012H5.62438C5.46177 1.26432 5.30748 1.32826 5.1825 1.43325L0.807501 5.80825L0.805001 5.812C0.7022 5.91877 0.639988 6.05814 0.629144 6.20596C0.6183 6.35378 0.659507 6.50074 0.745626 6.62137L9.49563 18.4964C9.55387 18.575 9.62972 18.6388 9.71709 18.6828C9.80447 18.7268 9.90093 18.7497 9.99875 18.7497C10.0966 18.7497 10.193 18.7268 10.2804 18.6828C10.3678 18.6388 10.4436 18.575 10.5019 18.4964L19.2519 6.62137C19.3349 6.5072 19.3772 6.36851 19.3721 6.22746C19.367 6.08641 19.3148 5.95113 19.2238 5.84325V5.84387ZM5.30188 3.08137L5.98688 5.62512H2.75813L5.30188 3.08137ZM12.8069 6.87512L10.0394 15.8701L7.61813 6.87512H12.8069ZM8.03313 5.62512L10.0325 2.8895L12.3169 5.62512H8.03313ZM11.3356 2.50012H14.1531L13.3944 4.96512L11.3356 2.50012ZM7.06688 4.82887L6.44 2.50012H8.76875L7.06688 4.82887ZM6.32313 6.87512L8.5325 15.0807L2.48625 6.87512H6.32313ZM14.115 6.87512H17.5125L11.6788 14.7926L14.115 6.87512ZM14.4994 5.62512L15.2631 3.14325L17.3906 5.62512H14.4994Z" fill="black"/>
</svg>
