<svg width="20" height="20" viewBox="0 0 20 20" fill="none" xmlns="http://www.w3.org/2000/svg">
<g clip-path="url(#clip0_90_1448)">
<path fill-rule="evenodd" clip-rule="evenodd" d="M6.63031 6.6601C6.90505 6.86906 6.95838 7.26118 6.74942 7.53592C6.22744 8.22223 5.91797 9.07577 5.91797 9.99999C5.91797 12.2478 7.75303 14.0829 10.0009 14.0829C12.2487 14.0829 14.0837 12.2478 14.0837 9.99999C14.0837 9.07578 13.7743 8.22227 13.2523 7.53591C13.0433 7.26116 13.0967 6.86904 13.3714 6.66009C13.6462 6.45114 14.0383 6.50448 14.2472 6.77922C14.9281 7.67443 15.3337 8.7917 15.3337 9.99999C15.3337 12.9382 12.939 15.3329 10.0009 15.3329C7.06267 15.3329 4.66797 12.9382 4.66797 9.99999C4.66797 8.7917 5.07365 7.67439 5.75449 6.77921C5.96344 6.50447 6.35556 6.45114 6.63031 6.6601Z" fill="black"/>
<path fill-rule="evenodd" clip-rule="evenodd" d="M1.31092 10C3.21631 13.1325 6.41111 15.1562 10 15.1562C13.5889 15.1562 16.7837 13.1325 18.6891 10C16.7837 6.86747 13.5889 4.84375 10 4.84375C6.41111 4.84375 3.21631 6.86747 1.31092 10ZM0.0425573 9.69119C2.11189 6.04999 5.78253 3.59375 10 3.59375C14.2175 3.59375 17.8881 6.04999 19.9574 9.69119C20.0663 9.88268 20.0663 10.1173 19.9574 10.3088C17.8881 13.95 14.2175 16.4062 10 16.4062C5.78253 16.4062 2.11189 13.95 0.0425573 10.3088C-0.0662691 10.1173 -0.0662691 9.88268 0.0425573 9.69119Z" fill="black"/>
<path fill-rule="evenodd" clip-rule="evenodd" d="M1.02874 10.4638C1.02861 10.4639 1.02888 10.4637 1.02874 10.4638L0.992942 10.4936C0.727561 10.7143 0.333492 10.6781 0.112764 10.4127C-0.107965 10.1473 -0.0717669 9.75326 0.193613 9.53253L0.230701 9.50169C2.91932 7.27152 6.31129 5.9375 9.99992 5.9375C13.6702 5.9375 17.0468 7.25825 19.729 9.46848C19.9954 9.68799 20.0334 10.0819 19.8139 10.3483C19.5944 10.6147 19.2005 10.6527 18.9341 10.4332C16.462 8.39605 13.3628 7.1875 9.99992 7.1875C6.62045 7.1875 3.50686 8.40837 1.02874 10.4638Z" fill="black"/>
<circle cx="9.96094" cy="10.6384" r="1.5625" fill="black"/>
</g>
<defs>
<clipPath id="clip0_90_1448">
<rect width="20" height="20" fill="white"/>
</clipPath>
</defs>
</svg>
