<svg width="32" height="32" viewBox="0 0 32 32" fill="none" xmlns="http://www.w3.org/2000/svg">
<path d="M24.9999 17.85V24C24.9999 24.27 24.8899 24.52 24.7099 24.71C24.5699 24.84 21.3499 28 15.9999 28C10.6499 28 7.42994 24.84 7.28995 24.71C7.10995 24.52 6.99995 24.27 6.99995 24V17.85L14.6599 21.68C15.0754 21.8899 15.5344 21.9993 15.9999 21.9993C16.4655 21.9993 16.9245 21.8899 17.3399 21.68L24.9999 17.85ZM29.9999 20.278V13.118L30.4469 12.894C30.6137 12.8115 30.7541 12.684 30.8522 12.5259C30.9504 12.3679 31.0024 12.1855 31.0024 11.9995C31.0024 11.8134 30.9504 11.6311 30.8522 11.473C30.7541 11.315 30.6137 11.1875 30.4469 11.105L16.4469 4.10498C16.308 4.03546 16.1548 3.99927 15.9994 3.99927C15.8441 3.99927 15.6909 4.03546 15.5519 4.10498L1.55195 11.105C1.38619 11.1885 1.2469 11.3165 1.14962 11.4746C1.05233 11.6327 1.00087 11.8147 1.00098 12.0003C1.00108 12.1859 1.05274 12.3679 1.15021 12.5258C1.24767 12.6838 1.3871 12.8116 1.55294 12.895L15.5529 19.895C15.6918 19.9643 15.8448 20.0003 15.9999 20.0003C16.1551 20.0003 16.3081 19.9643 16.4469 19.895L27.9999 14.118V20.278C27.4049 20.625 26.9999 21.262 26.9999 22C26.9999 23.103 27.8969 24 28.9999 24C30.1029 24 30.9999 23.103 30.9999 22C30.9999 21.263 30.5949 20.625 29.9999 20.278Z" fill="black"/>
</svg>
