<svg width="32" height="32" viewBox="0 0 32 32" fill="none" xmlns="http://www.w3.org/2000/svg">
<g clip-path="url(#clip0_101_195)">
<path d="M23.2461 9.25604L16.9376 6.83379V4.68792H20.4574C20.9566 4.68792 21.2544 4.13154 20.9774 3.71623L20.6064 3.15979C20.538 3.05712 20.5014 2.93648 20.5014 2.81308C20.5014 2.68967 20.538 2.56903 20.6064 2.46636L20.9774 1.90992C21.2544 1.49461 20.9566 0.938232 20.4574 0.938232H16.9376C16.9376 0.420482 16.5179 0.000732422 16.0001 0.000732422C15.4824 0.000732422 15.0626 0.420482 15.0626 0.938232V6.83379L8.75412 9.25604H23.2461ZM0.9375 13.006C1.71106 13.006 1.75025 13.7869 1.75025 13.9435C1.75025 14.1 1.71106 14.8809 0.9375 14.8809H31.0625C30.3943 14.8809 30.375 14.0394 30.375 13.9435C30.375 13.8475 30.3943 13.006 31.0625 13.006C31.5802 13.006 32 12.5863 32 12.0685C32 11.5508 31.5802 11.131 31.0625 11.131H0.9375C0.41975 11.131 0 11.5508 0 12.0685C0 12.5863 0.41975 13.006 0.9375 13.006ZM15.9648 26.813C15.4478 26.813 15.0273 27.2335 15.0273 27.7504V31.9994H16.9023V27.7504C16.9023 27.2335 16.4817 26.813 15.9648 26.813ZM23.1522 31.9994H31.0625C31.5802 31.9994 32 31.5797 32 31.0619V16.7559H23.1522V31.9994ZM26.3639 20.8759C26.3639 20.3581 26.7837 19.9384 27.3014 19.9384C27.8192 19.9384 28.2389 20.3581 28.2389 20.8759V22.1258C28.2389 22.6435 27.8192 23.0633 27.3014 23.0633C26.7837 23.0633 26.3639 22.6435 26.3639 22.1258V20.8759ZM26.3639 25.8755C26.3639 25.3577 26.7837 24.938 27.3014 24.938C27.8192 24.938 28.2389 25.3577 28.2389 25.8755V27.1254C28.2389 27.6432 27.8192 28.0629 27.3014 28.0629C26.7837 28.0629 26.3639 27.6432 26.3639 27.1254V25.8755Z" fill="black"/>
<path d="M10.6526 31.9994H13.1525V27.7504C13.1525 26.1995 14.4142 24.9379 15.965 24.9379C17.5159 24.9379 18.7775 26.1996 18.7775 27.7504V31.9994H21.2774V16.7559H10.6526V31.9994ZM16.9847 20.8758C16.9847 20.358 17.4045 19.9383 17.9222 19.9383C18.44 19.9383 18.8597 20.358 18.8597 20.8758V22.1257C18.8597 22.6435 18.44 23.0632 17.9222 23.0632C17.4045 23.0632 16.9847 22.6435 16.9847 22.1257V20.8758ZM13.141 20.8758C13.141 20.358 13.5607 19.9383 14.0785 19.9383C14.5962 19.9383 15.016 20.358 15.016 20.8758V22.1257C15.016 22.6435 14.5962 23.0632 14.0785 23.0632C13.5607 23.0632 13.141 22.6435 13.141 22.1257V20.8758ZM0.000488281 31.0619C0.000488281 31.5796 0.420238 31.9994 0.937988 31.9994H8.77755V16.7559H0.000488281V31.0619ZM3.52718 20.8758C3.52718 20.358 3.94693 19.9383 4.46468 19.9383C4.98243 19.9383 5.40218 20.358 5.40218 20.8758V22.1257C5.40218 22.6435 4.98243 23.0632 4.46468 23.0632C3.94693 23.0632 3.52718 22.6435 3.52718 22.1257V20.8758ZM3.52718 25.8754C3.52718 25.3577 3.94693 24.9379 4.46468 24.9379C4.98243 24.9379 5.40218 25.3577 5.40218 25.8754V27.1254C5.40218 27.6431 4.98243 28.0629 4.46468 28.0629C3.94693 28.0629 3.52718 27.6431 3.52718 27.1254V25.8754Z" fill="black"/>
</g>
<defs>
<clipPath id="clip0_101_195">
<rect width="32" height="32" fill="white"/>
</clipPath>
</defs>
</svg>
