<svg width="32" height="32" viewBox="0 0 32 32" fill="none" xmlns="http://www.w3.org/2000/svg">
<path d="M15.9998 0C9.25058 0 3.75977 5.49087 3.75977 12.24C3.75977 18.9891 9.25064 24.48 15.9998 24.48C22.7489 24.48 28.2398 18.9891 28.2398 12.24C28.2398 5.49087 22.749 0 15.9998 0ZM21.7435 20.1455L15.9998 17.4274L10.2561 20.1455L11.0662 13.8431L6.70633 9.2205L12.9506 8.04344L15.9998 2.46831L19.0488 8.04331L25.2932 9.22038L20.9333 13.843L21.7435 20.1455Z" fill="black"/>
<path d="M17.8293 9.7216L15.9995 6.37598L14.1697 9.7216L10.4223 10.428L13.0388 13.2021L12.5527 16.9844L15.9995 15.3532L19.4464 16.9844L18.9602 13.2021L21.5767 10.428L17.8293 9.7216ZM7.44922 27.7159C8.27648 27.5959 9.07213 27.3146 9.79103 26.8881V24.9234C8.96469 24.5178 8.18031 24.0319 7.44922 23.4725V27.7159ZM22.208 26.8881C22.9269 27.3146 23.7226 27.5959 24.5498 27.7159V23.4725C23.8187 24.0318 23.0344 24.5178 22.208 24.9234V26.8881ZM11.666 25.6799V32.0001C13.0541 31.7997 14.3304 31.155 15.33 30.1352L15.9995 29.4522L16.669 30.1352C17.6687 31.155 18.945 31.7997 20.333 32.0001V25.6799C18.9509 26.1239 17.4931 26.3551 15.9995 26.3551C14.506 26.3551 13.0482 26.1239 11.666 25.6799Z" fill="black"/>
</svg>
