<svg width="32" height="32" viewBox="0 0 32 32" fill="none" xmlns="http://www.w3.org/2000/svg">
<path fill-rule="evenodd" clip-rule="evenodd" d="M10.6667 1.33325H7.33333C6.97971 1.33325 6.64057 1.47373 6.39052 1.72378C6.14048 1.97382 6 2.31296 6 2.66659V26.6666C6 27.0202 6.14048 27.3593 6.39052 27.6094C6.64057 27.8594 6.97971 27.9999 7.33333 27.9999H10.6667V1.33325ZM13.3333 27.9999H24.6667C25.0203 27.9999 25.3594 27.8594 25.6095 27.6094C25.8595 27.3593 26 27.0202 26 26.6666V2.66659C26 2.31296 25.8595 1.97382 25.6095 1.72378C25.3594 1.47373 25.0203 1.33325 24.6667 1.33325H13.3333V27.9999ZM13.3333 27.9999V29.3333H10.6667V27.9999H13.3333Z" fill="black"/>
</svg>
