<svg width="32" height="32" viewBox="0 0 32 32" fill="none" xmlns="http://www.w3.org/2000/svg">
<path fill-rule="evenodd" clip-rule="evenodd" d="M16 5.33366C10.8453 5.33366 6.66667 9.51233 6.66667 14.667C6.66667 17.6084 8.4481 20.3576 10.9399 22.5172L15.5285 26.4939C15.7991 26.7285 16.2009 26.7285 16.4715 26.4939L21.0601 22.5172C23.5519 20.3576 25.3333 17.6084 25.3333 14.667C25.3333 9.51233 21.1547 5.33366 16 5.33366ZM4 14.667C4 8.03958 9.37258 2.66699 16 2.66699C22.6274 2.66699 28 8.03958 28 14.667C28 18.7022 25.587 22.1227 22.8066 24.5323L18.218 28.5091C16.9451 29.6123 15.0549 29.6123 13.782 28.5091L9.19341 24.5323C6.41302 22.1227 4 18.7022 4 14.667Z" fill="white"/>
<path d="M18.6654 14.6667C18.6654 16.1394 17.4715 17.3333 15.9987 17.3333C14.5259 17.3333 13.332 16.1394 13.332 14.6667C13.332 13.1939 14.5259 12 15.9987 12C17.4715 12 18.6654 13.1939 18.6654 14.6667Z" fill="white"/>
</svg>
