<svg width="32" height="32" viewBox="0 0 32 32" fill="none" xmlns="http://www.w3.org/2000/svg">
<rect width="32" height="32" rx="4" fill="#E9F4FD" fill-opacity="0.5"/>
<path d="M22.6668 17.6667C22.1724 17.6667 21.689 17.8133 21.2779 18.088C20.8668 18.3627 20.5463 18.7531 20.3571 19.21C20.1679 19.6668 20.1184 20.1694 20.2149 20.6544C20.3113 21.1393 20.5494 21.5848 20.8991 21.9344C21.2487 22.2841 21.6941 22.5222 22.1791 22.6186C22.6641 22.7151 23.1667 22.6656 23.6235 22.4764C24.0804 22.2871 24.4708 21.9667 24.7455 21.5556C25.0202 21.1445 25.1668 20.6611 25.1668 20.1667C25.1668 19.5036 24.9034 18.8677 24.4346 18.3989C23.9658 17.9301 23.3299 17.6667 22.6668 17.6667ZM23.5002 20.5833H22.6668C22.5563 20.5833 22.4503 20.5394 22.3722 20.4613C22.2941 20.3832 22.2502 20.2772 22.2502 20.1667V19.3333C22.2502 19.2228 22.2941 19.1168 22.3722 19.0387C22.4503 18.9606 22.5563 18.9167 22.6668 18.9167C22.7773 18.9167 22.8833 18.9606 22.9615 19.0387C23.0396 19.1168 23.0835 19.2228 23.0835 19.3333V19.75H23.5002C23.6107 19.75 23.7167 19.7939 23.7948 19.872C23.8729 19.9502 23.9168 20.0562 23.9168 20.1667C23.9168 20.2772 23.8729 20.3832 23.7948 20.4613C23.7167 20.5394 23.6107 20.5833 23.5002 20.5833ZM7.66683 20.1667V11C7.44582 11 7.23385 11.0878 7.07757 11.2441C6.92129 11.4004 6.8335 11.6123 6.8335 11.8333V21.8333C6.8335 22.0543 6.92129 22.2663 7.07757 22.4226C7.23385 22.5789 7.44582 22.6667 7.66683 22.6667H14.6418C13.4585 21.8333 10.7252 21.8333 9.3335 21.8333C8.89147 21.8333 8.46755 21.6577 8.15498 21.3452C7.84242 21.0326 7.66683 20.6087 7.66683 20.1667Z" fill="#66AEEE"/>
<path d="M9.33333 9.33337C9.11232 9.33337 8.90036 9.42117 8.74408 9.57745C8.5878 9.73373 8.5 9.94569 8.5 10.1667V20.1667C8.5 20.3877 8.5878 20.5997 8.74408 20.756C8.90036 20.9122 9.11232 21 9.33333 21C11.7958 21 14.4958 21.125 15.5833 22.4042V10.4667C14.0958 9.44587 11.6167 9.33337 9.33333 9.33337ZM19.3333 20.1667C19.3333 19.2827 19.6845 18.4348 20.3096 17.8097C20.9348 17.1846 21.7826 16.8334 22.6667 16.8334C22.9478 16.8352 23.2277 16.8716 23.5 16.9417V10.1667C23.5 9.94569 23.4122 9.73373 23.2559 9.57745C23.0996 9.42117 22.8877 9.33337 22.6667 9.33337C20.3833 9.33337 17.9042 9.44587 16.4167 10.4667V22.4042C17.0333 21.6792 18.1667 21.325 19.4833 21.1542C19.384 20.8344 19.3335 20.5015 19.3333 20.1667ZM24.3333 11V17.2834C24.6458 17.4652 24.9272 17.6959 25.1667 17.9667V11.8334C25.1667 11.6124 25.0789 11.4004 24.9226 11.2441C24.7663 11.0878 24.5543 11 24.3333 11ZM17.3625 22.6667H20.4667C20.2299 22.4593 20.0237 22.2194 19.8542 21.9542C18.9805 22.0007 18.1287 22.2443 17.3625 22.6667Z" fill="#66AEEE"/>
</svg>
