<svg width="32" height="32" viewBox="0 0 32 32" fill="none" xmlns="http://www.w3.org/2000/svg">
<rect width="32" height="32" rx="4" fill="#E9F4FD" fill-opacity="0.5"/>
<g clip-path="url(#clip0_116_430)">
<path fill-rule="evenodd" clip-rule="evenodd" d="M20.3747 15.457C20.2251 14.25 19.5997 13.2168 18.7083 12.5238C17.8181 11.8297 16.6641 11.4754 15.4575 11.6258C14.2493 11.7754 13.2177 12.4008 12.5231 13.291C11.8298 14.1812 11.4755 15.3363 11.6251 16.5422V16.5434C11.7759 17.7504 12.4013 18.7836 13.2915 19.4766C14.1817 20.1707 15.3356 20.525 16.5427 20.3746C17.7509 20.225 18.7837 19.5996 19.477 18.7094C20.17 17.8176 20.5243 16.6637 20.3747 15.457ZM16.7118 15.0691C16.7727 15.5254 16.4016 15.5785 16.2766 15.6691C15.5095 16.2195 17.2755 17.1684 17.6141 16.9914C17.8798 16.8531 18.0868 15.6141 18.3891 16.8187C18.5255 17.3625 18.7145 17.8707 18.9348 18.359C18.3446 19.093 17.4798 19.607 16.4723 19.7344C16.4669 19.7355 16.4614 19.7367 16.4548 19.7367C15.8313 19.8133 15.2259 19.7324 14.6755 19.5254C14.7587 19.3637 14.8638 19.223 15.0087 19.1223C16.0473 18.2598 16.5036 17.1215 14.6477 17.1879C13.7266 17.2434 13.3876 16.1691 13.0575 16.7262C12.8825 17.023 12.7395 17.334 12.6169 17.6551C12.4352 17.283 12.3163 16.8835 12.2649 16.4727C12.2649 16.4672 12.2638 16.4617 12.2626 16.4559C12.2391 16.2586 12.2306 16.0629 12.2372 15.8711C12.4665 15.8809 12.6977 15.8578 12.9337 15.7902C13.5614 15.6109 13.2438 14.725 14.5005 13.9863C15.372 13.4738 15.7884 12.9676 16.238 12.2422C17.0098 12.2898 17.7294 12.5734 18.3141 13.0285C18.5672 13.2264 18.7942 13.4556 18.9895 13.7105L18.054 14.025C17.4759 14.2465 16.6352 14.5059 16.7118 15.0691ZM15.9997 8.36484C15.352 8.36484 14.827 7.83984 14.827 7.19219C14.827 6.54453 15.352 6.01953 15.9997 6.01953C16.6473 6.01953 17.1723 6.54453 17.1723 7.19219C17.1723 7.83984 16.6477 8.36484 15.9997 8.36484ZM13.0942 10.2957C12.9169 10.0477 12.9712 9.69453 13.2227 9.52266L14.6821 8.52383C14.836 8.41875 14.9934 8.36445 15.1794 8.36445H16.8212C17.0071 8.36445 17.1645 8.41875 17.3173 8.52383L18.7766 9.52266C19.0278 9.69414 19.0833 10.0477 18.9063 10.2957C18.7294 10.5437 18.388 10.5902 18.1325 10.4242L17.5845 10.0688L17.1204 9.75664C17.0855 9.73296 17.0462 9.71641 17.0048 9.70793C16.9635 9.69946 16.9209 9.69922 16.8794 9.70724C16.838 9.71526 16.7985 9.73138 16.7633 9.75467C16.7281 9.77796 16.6979 9.80796 16.6743 9.84297C16.5759 9.99023 16.6145 10.1906 16.7618 10.2891L17.4626 10.7617V11.2523C16.9997 11.0418 16.4993 10.9379 15.9997 10.9379C15.5001 10.9379 15.0009 11.0418 14.5368 11.2523V10.7617L15.2388 10.2891C15.386 10.1906 15.4247 9.99023 15.3251 9.84297C15.2255 9.6957 15.0263 9.65703 14.879 9.75664L14.4149 10.0688L13.8669 10.4242C13.6114 10.5902 13.2716 10.5437 13.0942 10.2957ZM22.6126 12.1828C22.288 11.6215 22.4809 10.9039 23.0411 10.5805C23.6024 10.257 24.32 10.4488 24.6434 11.0102C24.9681 11.5703 24.7751 12.2879 24.2138 12.6125C23.6532 12.9355 22.936 12.743 22.6126 12.1828ZM20.9946 12.3375C21.072 12.1781 21.0056 11.9855 20.8462 11.9066L20.3446 11.6621L19.7622 11.3652C19.4907 11.2258 19.3602 10.9078 19.4864 10.6312C19.6126 10.3535 19.9458 10.2238 20.2204 10.3555L21.8149 11.1207C21.9821 11.2016 22.1083 11.3102 22.2013 11.4719L23.0216 12.8937C23.1145 13.0543 23.1466 13.2184 23.1321 13.4031L22.997 15.1672C22.9739 15.4707 22.6958 15.6941 22.3923 15.6645C22.0888 15.6355 21.8786 15.3645 21.8938 15.0598L21.9282 14.4066L21.9657 13.8496C21.979 13.6723 21.845 13.5184 21.6681 13.5063C21.4907 13.4941 21.3368 13.627 21.3247 13.8043L21.2661 14.648L20.8419 14.8937C20.7919 14.3918 20.6353 13.9064 20.3825 13.4699C20.1333 13.0371 19.7923 12.6562 19.3794 12.3605L19.8036 12.1148L20.5641 12.4867C20.7247 12.5637 20.9173 12.4973 20.9946 12.3375ZM24.6434 20.9898C24.32 21.5512 23.6024 21.743 23.0411 21.4195C22.4809 21.0949 22.288 20.3785 22.6126 19.8172C22.936 19.2559 23.6536 19.0641 24.2138 19.3875C24.7751 19.7121 24.9677 20.4297 24.6434 20.9898ZM23.0223 19.1066L22.202 20.5285C22.1091 20.6891 21.9829 20.7988 21.8157 20.8797L20.2212 21.6438C19.9466 21.7754 19.6134 21.6469 19.4872 21.3691C19.361 21.091 19.4915 20.7734 19.763 20.6352L20.3454 20.3383L20.847 20.0926C21.0063 20.0152 21.0727 19.8223 20.9954 19.6629C20.9181 19.5035 20.7251 19.4371 20.5657 19.5145L19.8052 19.8863L19.3809 19.6406C19.7938 19.3449 20.1348 18.9641 20.3841 18.5312C20.6345 18.0984 20.7938 17.6133 20.8434 17.1074L21.2677 17.352L21.3263 18.1969C21.3384 18.3742 21.4923 18.507 21.6696 18.4949C21.847 18.4828 21.9809 18.3289 21.9673 18.1516L21.9298 17.5945L21.8954 16.9414C21.8798 16.6367 22.0903 16.3656 22.3938 16.3355C22.6973 16.3066 22.9751 16.5305 22.9985 16.834L23.1337 18.598C23.1473 18.782 23.1153 18.9449 23.0223 19.1066ZM15.9997 23.6352C16.6473 23.6352 17.1723 24.1602 17.1723 24.8078C17.1723 25.4555 16.6473 25.9805 15.9997 25.9805C15.352 25.9805 14.827 25.4555 14.827 24.8078C14.827 24.1602 15.352 23.6352 15.9997 23.6352ZM18.9063 21.7043C19.0837 21.9523 19.0282 22.3055 18.7766 22.4773L17.3173 23.4762C17.1645 23.5813 17.0071 23.6355 16.8212 23.6355H15.1794C14.9934 23.6355 14.836 23.5813 14.6821 23.4762L13.2227 22.4773C12.9716 22.3059 12.9173 21.9523 13.0942 21.7043C13.2716 21.4563 13.6114 21.4098 13.8673 21.5758L14.4153 21.9312L14.8794 22.2434C15.0266 22.343 15.2259 22.3043 15.3255 22.157C15.4251 22.0098 15.3864 21.8094 15.2391 21.7098L14.5372 21.2379V20.7473C15.0013 20.9566 15.5005 21.0617 16.0001 21.0617C16.4997 21.0617 17.0001 20.9566 17.463 20.7473V21.2379L16.7622 21.7098C16.6149 21.8094 16.5763 22.0098 16.6747 22.157C16.6983 22.192 16.7285 22.222 16.7637 22.2453C16.7989 22.2686 16.8384 22.2847 16.8798 22.2928C16.9213 22.3008 16.9639 22.3005 17.0052 22.2921C17.0466 22.2836 17.0858 22.267 17.1208 22.2434L17.5848 21.9312L18.1329 21.5758C18.3884 21.4098 18.7294 21.4563 18.9063 21.7043ZM9.38836 19.8172C9.7118 20.3785 9.52 21.0949 8.95868 21.4195C8.39852 21.743 7.68094 21.5512 7.35633 20.9898C7.03289 20.4297 7.22469 19.7121 7.78602 19.3875C8.34735 19.0645 9.06375 19.2559 9.38836 19.8172ZM11.0048 19.6625C10.9274 19.8219 10.9938 20.0145 11.1532 20.0922L11.6559 20.3379L12.2384 20.6348C12.5098 20.773 12.6391 21.091 12.513 21.3687C12.3868 21.6465 12.0536 21.775 11.779 21.6434L10.1845 20.8793C10.0173 20.7984 9.8911 20.6887 9.7993 20.5281L8.97782 19.1062C8.88485 18.9445 8.85282 18.7816 8.86727 18.5969L9.00243 16.8328C9.02547 16.5293 9.30477 16.3059 9.60789 16.3344C9.91024 16.3645 10.1216 16.6355 10.1052 16.9402L10.072 17.5934L10.0333 18.1504C10.0212 18.3277 10.154 18.4816 10.3309 18.4937C10.5083 18.5059 10.6622 18.373 10.6743 18.1957L10.7329 17.3508L11.1579 17.1063C11.2079 17.6121 11.3661 18.0973 11.6165 18.5301C11.8669 18.9629 12.2067 19.3438 12.6208 19.6395L12.1958 19.8852L11.436 19.5133C11.2763 19.4363 11.0837 19.5027 11.0048 19.6625ZM7.35633 11.0102C7.68094 10.4488 8.39813 10.2562 8.95868 10.5805C9.52 10.9039 9.7118 11.6215 9.38836 12.1828C9.06375 12.743 8.34735 12.9359 7.78602 12.6125C7.22469 12.2879 7.03289 11.5703 7.35633 11.0102ZM8.97743 12.8934L9.79891 11.4715C9.89071 11.3098 10.0169 11.2012 10.1841 11.1203L11.7786 10.3551C12.0532 10.2234 12.3864 10.3527 12.5126 10.6309C12.6388 10.9078 12.5095 11.2254 12.238 11.3648L11.6556 11.6617L11.1528 11.9062C10.9934 11.9848 10.927 12.1773 11.0044 12.3371C11.0829 12.4965 11.2759 12.5629 11.4352 12.4855L12.195 12.1137L12.62 12.3594C12.2059 12.6551 11.8661 13.0359 11.6157 13.4688C11.363 13.9052 11.2067 14.3907 11.1571 14.8926L10.7321 14.6469L10.6735 13.8031C10.6614 13.6258 10.5075 13.493 10.3302 13.5051C10.1528 13.5172 10.02 13.6711 10.0325 13.8484L10.0712 14.4055L10.1044 15.0586C10.1212 15.3629 9.90946 15.6344 9.60711 15.6633C9.3036 15.6934 9.02469 15.4695 9.00164 15.166L8.86649 13.402C8.85243 13.218 8.88446 13.0539 8.97743 12.8934Z" fill="#66AEEE"/>
</g>
<defs>
<clipPath id="clip0_116_430">
<rect width="20" height="20" fill="white" transform="translate(6 6)"/>
</clipPath>
</defs>
</svg>
