<svg width="32" height="32" viewBox="0 0 32 32" fill="none" xmlns="http://www.w3.org/2000/svg">
<rect width="32" height="32" rx="4" fill="#E9F4FD" fill-opacity="0.5"/>
<path d="M10.8073 16.1813H9.47608C9.43499 16.1811 9.39428 16.1891 9.35629 16.2047C9.3183 16.2203 9.28379 16.2434 9.25474 16.2724C9.22569 16.3015 9.20267 16.336 9.18703 16.374C9.17138 16.412 9.16341 16.4527 9.16358 16.4938V24.4375C9.16345 24.4786 9.17145 24.5193 9.18711 24.5572C9.20277 24.5952 9.22579 24.6297 9.25483 24.6587C9.28387 24.6878 9.31837 24.7108 9.35634 24.7265C9.39431 24.7421 9.435 24.7501 9.47608 24.75H10.8073C11.1385 24.749 11.4559 24.617 11.6901 24.3828C11.9243 24.1486 12.0563 23.8312 12.0573 23.5V17.4313C12.0569 17.0999 11.9251 16.7822 11.6908 16.5478C11.4564 16.3135 11.1387 16.1817 10.8073 16.1813ZM21.2601 16.6219H17.982V12.4969C17.982 12.05 17.7539 11.4097 16.6664 10.9034C16.5332 10.8423 16.3862 10.8173 16.2403 10.8311C16.0944 10.8448 15.9546 10.8967 15.8351 10.9816C15.7178 11.066 15.6254 11.1805 15.5677 11.3131C15.5099 11.4456 15.489 11.5913 15.507 11.7347C15.6235 12.9163 15.4363 14.1081 14.9633 15.1972C14.7559 15.7004 14.4455 16.1548 14.0521 16.5309C13.6587 16.9071 13.1909 17.1969 12.6789 17.3816C12.6815 17.3981 12.6825 17.4148 12.682 17.4316V23.5281C13.1498 23.95 13.6864 24.3325 14.3508 24.3094H19.3008C20.0426 24.3063 20.7587 24.0371 21.319 23.5508C21.8793 23.0646 22.2465 22.3934 22.3539 21.6594L22.8164 18.4188C22.8471 18.1958 22.8299 17.9689 22.7659 17.7532C22.7019 17.5375 22.5926 17.3379 22.4453 17.1678C22.298 16.9977 22.1161 16.861 21.9117 16.7668C21.7073 16.6727 21.4852 16.6233 21.2601 16.6219ZM16.7033 9.28562C16.7861 9.28562 16.8656 9.2527 16.9242 9.1941C16.9828 9.13549 17.0158 9.05601 17.0158 8.97312V7.5625C17.0158 7.47962 16.9828 7.40013 16.9242 7.34153C16.8656 7.28292 16.7861 7.25 16.7033 7.25C16.6204 7.25 16.5409 7.28292 16.4823 7.34153C16.4237 7.40013 16.3908 7.47962 16.3908 7.5625V8.97312C16.3908 9.05601 16.4237 9.13549 16.4823 9.1941C16.5409 9.2527 16.6204 9.28562 16.7033 9.28562ZM14.4876 10.02C14.5163 10.0505 14.5508 10.075 14.5891 10.0919C14.6274 10.1088 14.6687 10.1179 14.7106 10.1185C14.7525 10.1192 14.794 10.1114 14.8328 10.0957C14.8716 10.08 14.9069 10.0566 14.9365 10.027C14.9661 9.99735 14.9894 9.96209 15.0051 9.92327C15.0208 9.88445 15.0286 9.84287 15.0279 9.801C15.0272 9.75914 15.0181 9.71783 15.0012 9.67954C14.9842 9.64126 14.9597 9.60677 14.9292 9.57812L13.932 8.58125C13.9032 8.5514 13.8687 8.5276 13.8306 8.51122C13.7925 8.49484 13.7514 8.48622 13.71 8.48586C13.6685 8.4855 13.6273 8.49341 13.5889 8.50912C13.5505 8.52483 13.5156 8.54804 13.4863 8.57738C13.4569 8.60672 13.4337 8.64161 13.418 8.68001C13.4023 8.71842 13.3944 8.75957 13.3947 8.80106C13.3951 8.84256 13.4037 8.88356 13.4201 8.92169C13.4365 8.95982 13.4603 8.9943 13.4901 9.02312L14.4876 10.02ZM18.6976 10.1116C18.7387 10.1116 18.7793 10.1035 18.8172 10.0878C18.8552 10.0721 18.8896 10.0491 18.9186 10.02L19.9158 9.02281C19.9727 8.96387 20.0042 8.88494 20.0035 8.803C20.0028 8.72106 19.9699 8.64268 19.912 8.58474C19.854 8.5268 19.7756 8.49394 19.6937 8.49323C19.6118 8.49251 19.5328 8.52401 19.4739 8.58094L18.4767 9.57812C18.434 9.62222 18.4052 9.67782 18.3937 9.73809C18.3823 9.79835 18.3887 9.86066 18.4121 9.91734C18.4356 9.97401 18.4752 10.0226 18.5259 10.0571C18.5766 10.0916 18.6363 10.1105 18.6976 10.1116Z" fill="#66AEEE"/>
</svg>
