<svg width="32" height="32" viewBox="0 0 32 32" fill="none" xmlns="http://www.w3.org/2000/svg">
<rect width="32" height="32" rx="4" fill="#E9F4FD" fill-opacity="0.5"/>
<g clip-path="url(#clip0_116_196)">
<path d="M23.0174 22.2327H12.5326C12.2377 22.2327 11.9985 22.4718 11.9985 22.7668V23.0955C11.9985 23.3904 12.2377 23.6297 12.5326 23.6297H24.7841V22.2327L23.0174 22.2327Z" fill="#66AEEE"/>
<path d="M11.4213 13.8247C13.0544 13.8247 14.3783 12.5008 14.3783 10.8677C14.3783 9.23464 13.0544 7.91077 11.4213 7.91077C9.78823 7.91077 8.46436 9.23464 8.46436 10.8677C8.46436 12.5008 9.78823 13.8247 11.4213 13.8247Z" fill="#66AEEE"/>
<path d="M18.6358 18.1202L11.8596 18.1164L11.6992 18.1159V17.3296L11.6936 16.6714C11.6936 15.0992 10.4191 13.8246 8.84681 13.8246C8.79355 13.8246 8.74064 13.8264 8.68807 13.8293L8.68406 13.8246C7.2017 13.8246 6 15.0263 6 16.5087V24.0892H11.6992V20.8599L11.6238 20.854C11.6184 20.8535 11.6171 20.854 11.6138 20.854C11.2282 20.854 10.8586 20.6917 10.5982 20.4074L8.28499 17.8824C8.26745 17.8633 8.25386 17.8409 8.24498 17.8165C8.2361 17.7921 8.23212 17.7662 8.23325 17.7403C8.23439 17.7144 8.24062 17.6889 8.2516 17.6654C8.26257 17.6419 8.27807 17.6208 8.29721 17.6033C8.31634 17.5857 8.33873 17.5721 8.36311 17.5633C8.3875 17.5544 8.41339 17.5504 8.43931 17.5515C8.46523 17.5527 8.49068 17.5589 8.51419 17.5699C8.53771 17.5808 8.55883 17.5963 8.57635 17.6155L10.8895 20.1405C11.0775 20.3456 11.3426 20.4711 11.6217 20.4752L11.8936 20.4791H18.6358C19.2872 20.4791 19.8153 19.951 19.8153 19.2996C19.8153 18.6482 19.2872 18.1202 18.6358 18.1202Z" fill="#66AEEE"/>
<path d="M25.6428 13.935C25.367 13.8405 25.0668 13.9876 24.9722 14.2634L22.7335 20.7988H14.7228C14.4313 20.7988 14.1948 21.0352 14.1948 21.3267C14.1948 21.6183 14.4313 21.8547 14.7228 21.8547H23.1043C23.2839 21.8547 23.4424 21.7647 23.5376 21.6277C23.5714 21.5832 23.5979 21.5335 23.6161 21.4806L25.9714 14.6054C26.0657 14.3297 25.9187 14.0294 25.6428 13.935Z" fill="#66AEEE"/>
</g>
<defs>
<clipPath id="clip0_116_196">
<rect width="20" height="20" fill="white" transform="translate(6 6)"/>
</clipPath>
</defs>
</svg>
