<svg width="32" height="32" viewBox="0 0 32 32" fill="none" xmlns="http://www.w3.org/2000/svg">
<rect width="32" height="32" rx="4" fill="#E9F4FD" fill-opacity="0.5"/>
<path d="M22.4351 12.035C23.152 11.2935 23.9926 9.77067 23.1263 8.87286C22.9853 8.73046 22.8123 8.62375 22.6218 8.56158C22.4312 8.4994 22.2286 8.48356 22.0307 8.51536C21.2477 8.63558 20.5238 9.0032 19.9648 9.56442L18.2213 11.3079L17.1776 11.0807C17.6279 10.391 16.6966 9.62005 16.1032 10.2044L15.576 10.7316L14.3391 10.4622C15.1098 9.81817 14.1916 8.73723 13.4398 9.39098L12.721 10.1097L10.161 9.55223C10.0622 9.53057 9.95943 9.53416 9.86233 9.56267C9.76522 9.59118 9.67686 9.64369 9.6054 9.71536L9.09008 10.2307C8.80665 10.4985 8.87821 11.0079 9.22508 11.1866L15.2373 14.5079L12.1938 17.8379L9.1029 18.0022L8.62415 18.4807C8.40633 18.6866 8.4904 19.0835 8.77415 19.1813L11.7001 20.2988L12.8179 23.225C12.9166 23.5079 13.3116 23.5938 13.5188 23.3744L13.997 22.8963L14.1613 19.805L17.4913 16.7616L20.8104 22.7716C20.9891 23.1185 21.4982 23.1904 21.7663 22.9069C22.0548 22.5744 22.5551 22.3054 22.4451 21.8363L21.8885 19.2788L22.6082 18.5594C22.7398 18.4279 22.8123 18.2529 22.8123 18.0666C22.8095 17.3847 21.9451 17.1269 21.5363 17.6604L21.2673 16.4235L21.7948 15.896C22.3785 15.3 21.6163 14.3841 20.9188 14.8232L20.6913 13.7779L22.4351 12.035Z" fill="#66AEEE"/>
</svg>
