<svg width="32" height="32" viewBox="0 0 32 32" fill="none" xmlns="http://www.w3.org/2000/svg">
<rect width="32" height="32" rx="4" fill="#E9F4FD" fill-opacity="0.5"/>
<path d="M18.5 11.4166C18.279 11.4166 18.067 11.3288 17.9107 11.1725C17.7545 11.0163 17.6667 10.8043 17.6667 10.5833V9.33329H14.3333V10.5833C14.3333 10.8043 14.2455 11.0163 14.0893 11.1725C13.933 11.3288 13.721 11.4166 13.5 11.4166C13.279 11.4166 13.067 11.3288 12.9107 11.1725C12.7545 11.0163 12.6667 10.8043 12.6667 10.5833V9.33329C12.6667 8.41413 13.4142 7.66663 14.3333 7.66663H17.6667C18.5858 7.66663 19.3333 8.41413 19.3333 9.33329V10.5833C19.3333 10.8043 19.2455 11.0163 19.0893 11.1725C18.933 11.3288 18.721 11.4166 18.5 11.4166ZM16.5917 18.8166C16.1911 18.9543 15.7551 18.9484 15.3583 18.8L6 15.6833V22.0416C6 23.3083 7.025 24.3333 8.29167 24.3333H23.7083C24.975 24.3333 26 23.3083 26 22.0416V15.6833L16.5917 18.8166Z" fill="#66AEEE"/>
<path d="M26 12.4583V14.3666L16.2 17.6333C16.1333 17.6583 16.0667 17.6666 16 17.6666C15.9333 17.6666 15.8667 17.6583 15.8 17.6333L6 14.3666V12.4583C6 11.1916 7.025 10.1666 8.29167 10.1666H23.7083C24.975 10.1666 26 11.1916 26 12.4583Z" fill="#66AEEE"/>
</svg>
