<svg width="24" height="24" viewBox="0 0 24 24" fill="none" xmlns="http://www.w3.org/2000/svg">
<path d="M22.7544 16.5265L19.8312 20.6593C19.7232 20.7985 19.584 20.8897 19.4136 20.9185C19.2504 20.9449 19.0872 20.9065 18.948 20.8105L15.1584 18.1249V22.7689C15.1584 23.1193 14.8824 23.4001 14.5296 23.4001H9.46557C9.11277 23.4001 8.82957 23.1145 8.82957 22.7689V18.1249L5.04717 20.8105C4.76157 21.0121 4.36077 20.9449 4.16397 20.6593L1.24077 16.5265C1.03437 16.2433 1.10157 15.8449 1.38717 15.6433L6.51597 12.0001L1.38717 8.3593C1.31909 8.31102 1.26124 8.24973 1.21698 8.17897C1.17272 8.1082 1.14292 8.02937 1.12931 7.94702C1.1157 7.86468 1.11854 7.78045 1.13767 7.69921C1.1568 7.61796 1.19185 7.54132 1.24077 7.4737L4.16397 3.3409C4.36077 3.0601 4.76157 2.9881 5.04717 3.1945L8.83197 5.8753V1.2361C8.83197 0.880898 9.11757 0.600098 9.46797 0.600098H14.5344C14.8872 0.600098 15.1632 0.885698 15.1632 1.2361V5.8801L18.9528 3.1945C19.0896 3.0937 19.2528 3.0601 19.416 3.0889C19.5888 3.1153 19.7304 3.2065 19.836 3.3409L22.764 7.4737C22.9608 7.7617 22.9008 8.1553 22.6176 8.3593L17.4768 12.0001L22.6128 15.6433C22.8984 15.8449 22.956 16.2433 22.7544 16.5265Z" fill="#FBB040"/>
</svg>
