<svg width="20" height="20" viewBox="0 0 20 20" fill="none" xmlns="http://www.w3.org/2000/svg">
<path d="M17.8547 12.6687L17.8479 12.6755L10.8559 19.6767C10.8003 19.732 10.7389 19.7811 10.6728 19.8231L10.4715 19.933L10.3342 19.9787H10.2335C10.0792 20.0071 9.92106 20.0071 9.76677 19.9787H9.56544L9.40984 19.8964C9.32313 19.8493 9.2431 19.7908 9.17188 19.7225L2.15239 12.6755C1.68234 12.2092 1.67929 11.4501 2.14561 10.98L2.15239 10.9733C2.62621 10.5212 3.37164 10.5212 3.84551 10.9733L8.02792 15.1465C8.20835 15.3234 8.4981 15.3206 8.67501 15.1401C8.75734 15.0562 8.80419 14.9438 8.80581 14.8262V1.19901C8.80577 0.536856 9.34249 5.34058e-05 10.0046 1.14441e-05C10.6668 -3.24249e-05 11.2036 0.536684 11.2036 1.19884V14.8262C11.2072 15.0789 11.4149 15.2809 11.6676 15.2773C11.7851 15.2757 11.8976 15.2288 11.9815 15.1465L16.1457 10.9733C16.6207 10.5153 17.3729 10.5153 17.8479 10.9733C18.318 11.4396 18.321 12.1987 17.8547 12.6687Z" fill="#66AEEE"/>
</svg>
