<svg width="22" height="22" viewBox="0 0 22 22" fill="none" xmlns="http://www.w3.org/2000/svg">
<path d="M11 0C6.35989 0 2.58496 3.77498 2.58496 8.415C2.58496 13.055 6.35994 16.83 11 16.83C15.64 16.83 19.415 13.055 19.415 8.415C19.415 3.77498 15.64 0 11 0ZM14.9487 13.85L11 11.9814L7.05118 13.85L7.60814 9.51711L4.61072 6.33909L8.90369 5.52986L11 1.69696L13.0962 5.52978L17.3892 6.33901L14.3918 9.51706L14.9487 13.85Z" fill="#66AEEE"/>
<path d="M12.2579 6.68354L10.9999 4.38342L9.74193 6.68354L7.16561 7.16917L8.96445 9.07638L8.6302 11.6767L10.9999 10.5552L13.3696 11.6767L13.0354 9.07638L14.8342 7.16917L12.2579 6.68354ZM5.12158 19.0546C5.69032 18.9721 6.23733 18.7788 6.73158 18.4855V17.1348C6.16347 16.8559 5.6242 16.5218 5.12158 16.1373V19.0546ZM15.2683 18.4855C15.7625 18.7788 16.3095 18.9721 16.8783 19.0546V16.1373C16.3756 16.5218 15.8364 16.8559 15.2683 17.1348V18.4855ZM8.02064 17.6548V22C8.97493 21.8622 9.8524 21.419 10.5396 20.7179L10.9999 20.2483L11.4602 20.7179C12.1474 21.419 13.0249 21.8622 13.9792 22V17.6548C13.029 17.9601 12.0267 18.1191 10.9999 18.1191C9.9731 18.1191 8.97085 17.9601 8.02064 17.6548Z" fill="#66AEEE"/>
</svg>
