<svg width="22" height="22" viewBox="0 0 22 22" fill="none" xmlns="http://www.w3.org/2000/svg">
<path fill-rule="evenodd" clip-rule="evenodd" d="M16.7917 15.4954C17.7929 14.211 18.3356 12.6286 18.3335 11C18.3335 6.95204 15.0472 3.66671 11.0002 3.66671C6.95216 3.66671 3.66683 6.95204 3.66683 11C3.66683 15.0471 6.95216 18.3334 11.0002 18.3334C11.2362 18.3439 11.459 18.4451 11.6223 18.6159C11.7856 18.7866 11.8767 19.0138 11.8767 19.25C11.8767 19.4863 11.7856 19.7135 11.6223 19.8842C11.459 20.055 11.2362 20.1561 11.0002 20.1667C5.94016 20.1667 1.8335 16.0591 1.8335 11C1.8335 5.94096 5.94016 1.83337 11.0002 1.83337C16.0592 1.83337 20.1668 5.94096 20.1668 11C20.1693 13.1151 19.4374 15.1654 18.0961 16.8007C18.2468 16.9797 18.3235 17.2094 18.3107 17.443C18.2978 17.6766 18.1962 17.8965 18.0268 18.0577C17.8573 18.219 17.6326 18.3096 17.3987 18.3109C17.1647 18.3122 16.9391 18.2242 16.7678 18.0648L11.4741 12.771L11.4686 12.7729C11.0797 12.8734 10.6688 12.8454 10.2971 12.6931C9.96292 12.5536 9.67749 12.3184 9.47673 12.0171C9.27597 11.7157 9.16885 11.3617 9.16885 10.9996C9.16885 10.6375 9.27597 10.2835 9.47673 9.98211C9.67749 9.68076 9.96292 9.44553 10.2971 9.30604C10.7003 9.13786 11.1505 9.11997 11.5657 9.25562C12.0116 9.40033 12.3851 9.71032 12.6094 10.1219C12.8338 10.5334 12.892 11.0153 12.7721 11.4685L12.7712 11.4749L14.1581 12.8618C14.4857 12.3049 14.6603 11.6713 14.6645 11.0252C14.6686 10.3791 14.5019 9.74334 14.1815 9.1823C13.861 8.62125 13.398 8.1548 12.8394 7.83014C12.2808 7.50547 11.6463 7.3341 11.0002 7.33337C8.97616 7.33337 7.3335 8.97604 7.3335 11C7.3335 13.0231 8.97616 14.6667 11.0002 14.6667C11.2362 14.6773 11.459 14.7785 11.6223 14.9492C11.7856 15.12 11.8767 15.3471 11.8767 15.5834C11.8767 15.8196 11.7856 16.0468 11.6223 16.2175C11.459 16.3883 11.2362 16.4895 11.0002 16.5C7.96416 16.5 5.50016 14.0351 5.50016 11C5.50016 7.96404 7.96416 5.50004 11.0002 5.50004C14.0352 5.50004 16.5002 7.96404 16.5002 11C16.5014 12.1422 16.1457 13.2563 15.4827 14.1864L16.7917 15.4954Z" fill="#66AEEE"/>
</svg>
