<svg width="15" height="15" viewBox="0 0 15 15" fill="none" xmlns="http://www.w3.org/2000/svg">
<path d="M13.1929 10.8373C13.8792 9.71909 14.2417 8.43232 14.2399 7.1203C14.2417 5.80823 13.8793 4.52125 13.1929 3.40302L13.189 3.39678C12.5523 2.3589 11.66 1.50165 10.5974 0.906958C9.53488 0.312266 8.33757 0 7.11992 0C5.90227 0 4.70496 0.312266 3.64241 0.906958C2.57986 1.50165 1.68757 2.3589 1.0508 3.39678L1.04696 3.40302C0.362307 4.522 0 5.80833 0 7.12014C0 8.43196 0.362307 9.71829 1.04696 10.8373L1.05096 10.8437C1.68775 11.8815 2.58005 12.7387 3.64259 13.3334C4.70514 13.928 5.90242 14.2402 7.12005 14.2402C8.33767 14.2402 9.53495 13.9279 10.5975 13.3333C11.66 12.7386 12.5523 11.8814 13.189 10.8435L13.1929 10.8373ZM8.03 13.0198C7.8943 13.1508 7.73811 13.2586 7.5676 13.3392C7.4277 13.4057 7.27474 13.4401 7.11984 13.4401C6.96495 13.4401 6.81199 13.4057 6.67208 13.3392C6.34769 13.1735 6.07001 12.9291 5.8644 12.6285C5.44454 12.0217 5.13339 11.3465 4.94488 10.6331C5.66915 10.5885 6.39416 10.5658 7.11992 10.5649C7.84536 10.5649 8.57043 10.5877 9.29512 10.6331C9.19076 10.9999 9.0604 11.3588 8.90504 11.707C8.70047 12.1968 8.40336 12.6425 8.03 13.0198ZM0.813843 7.52014H3.68568C3.7044 8.32148 3.79127 9.11977 3.94536 9.90638C3.1603 9.9755 2.37726 10.0704 1.59624 10.1912C1.13884 9.3706 0.87147 8.45782 0.813843 7.52014ZM1.59624 4.04926C2.37694 4.17022 3.16024 4.26516 3.94616 4.33406C3.7918 5.12058 3.70477 5.91883 3.686 6.72014H0.813843C0.871494 5.78252 1.13887 4.86979 1.59624 4.04926ZM6.20984 1.22046C6.34554 1.08951 6.50173 0.981638 6.67224 0.901101C6.81215 0.834627 6.96511 0.800138 7.12 0.800138C7.2749 0.800138 7.42786 0.834627 7.56776 0.901101C7.89215 1.06679 8.16984 1.31114 8.37544 1.61182C8.79531 2.2186 9.10645 2.89378 9.29496 3.60718C8.5707 3.65177 7.84568 3.67449 7.11992 3.67534C6.39448 3.67534 5.66942 3.65262 4.94472 3.60718C5.04909 3.2404 5.17944 2.88152 5.3348 2.53326C5.53938 2.04348 5.83648 1.59774 6.20984 1.22046ZM13.426 6.72014H10.5542C10.5354 5.9188 10.4486 5.12051 10.2945 4.3339C11.0796 4.26478 11.8626 4.16985 12.6436 4.0491C13.101 4.86968 13.3684 5.78246 13.426 6.72014ZM4.75 9.84414C4.59357 9.07879 4.50523 8.30108 4.486 7.52014H9.754C9.73496 8.30112 9.64678 9.07888 9.49048 9.8443C8.70115 9.79246 7.91096 9.76601 7.11992 9.76494C6.32952 9.76494 5.53955 9.79134 4.75 9.84414ZM9.48984 4.39614C9.64627 5.1615 9.73462 5.9392 9.75384 6.72014H4.486C4.50505 5.93916 4.59323 5.1614 4.74952 4.39598C5.53886 4.44782 6.32904 4.47428 7.12008 4.47534C7.91048 4.47534 8.70046 4.44889 9.49 4.39598L9.48984 4.39614ZM10.5538 7.52014H13.426C13.3684 8.45777 13.101 9.37049 12.6436 10.191C11.8628 10.0701 11.0795 9.97513 10.2937 9.90622C10.448 9.1197 10.5351 8.32145 10.5538 7.52014ZM12.1639 3.31294C11.4813 3.41139 10.7966 3.48937 10.11 3.54686C9.98661 3.08735 9.82746 2.63819 9.634 2.2035C9.45735 1.80351 9.23508 1.42527 8.9716 1.0763C10.2448 1.46681 11.3621 2.24961 12.1639 3.31294ZM2.65112 2.65118C3.38151 1.92009 4.28009 1.37933 5.26808 1.0763C5.25304 1.09582 5.23768 1.11438 5.22296 1.13406C4.71512 1.86509 4.3452 2.6828 4.13144 3.54686C3.44472 3.48873 2.7596 3.41075 2.07608 3.31294C2.25234 3.07941 2.44448 2.8583 2.65112 2.65118ZM2.07608 10.9273C2.75864 10.8289 3.44328 10.7509 4.13 10.6934C4.2534 11.1529 4.41255 11.6021 4.606 12.0368C4.78266 12.4368 5.00493 12.815 5.2684 13.164C3.99518 12.7735 2.8779 11.9907 2.07608 10.9273ZM11.589 11.5891C10.8587 12.3202 9.96008 12.861 8.97208 13.164C8.98712 13.1445 9.00248 13.1259 9.0172 13.1062C9.52505 12.3752 9.89497 11.5575 10.1087 10.6934C10.7954 10.7516 11.4806 10.8295 12.1641 10.9273C11.9878 11.1609 11.7957 11.382 11.589 11.5891Z" fill="#66AEEE"/>
</svg>
