<svg width="32" height="32" viewBox="0 0 32 32" fill="none" xmlns="http://www.w3.org/2000/svg">
<rect width="32" height="32" rx="4" fill="#E9F4FD" fill-opacity="0.5"/>
<g clip-path="url(#clip0_69_107)">
<path d="M24.88 11.3888L24.815 11.4175C23.3575 12.0663 21.8437 12.5375 20.2912 12.8475C20.7298 14.9285 20.7289 17.0781 20.2887 19.1588C21.8412 19.4675 23.3625 19.935 24.8137 20.5813L24.8775 20.61C25.5912 19.2287 26 17.6637 26 16C26 14.3363 25.5912 12.7712 24.88 11.3888ZM13.27 20.1862C13.8225 21.945 14.7338 23.6112 15.9987 25.0837C17.2638 23.6112 18.1763 21.945 18.7275 20.1862C16.9163 19.9462 15.0813 19.9475 13.27 20.1862ZM19.0525 13.0425C18.0475 13.1837 17.0325 13.28 16 13.28C14.9663 13.28 13.9513 13.1825 12.9462 13.0425C12.525 14.995 12.525 17.015 12.9488 18.9675C14.9728 18.6862 17.026 18.6862 19.05 18.9675C19.4739 17.0153 19.4748 14.995 19.0525 13.0425ZM15.9987 6.91625C14.7338 8.38875 13.8225 10.055 13.27 11.815C15.0813 12.0538 16.9162 12.0538 18.7275 11.815C18.175 10.0563 17.2638 8.38875 15.9987 6.91625ZM16.8612 6C18.3288 7.68 19.3738 9.59625 19.9813 11.62C21.4388 11.335 22.8663 10.9012 24.2288 10.3C22.5788 7.90125 19.9163 6.2625 16.8612 6ZM7.77 10.3C9.13375 10.9 10.5613 11.335 12.0175 11.62C12.625 9.59625 13.67 7.68 15.1375 6C12.0825 6.2625 9.42125 7.90125 7.77 10.3ZM11.7087 12.8488C10.1562 12.5375 8.64375 12.0675 7.1875 11.4187L7.1225 11.39C6.40875 12.7712 6 14.3363 6 16C6 17.6637 6.40875 19.2288 7.1225 20.6112L7.1875 20.5825C8.6375 19.935 10.1587 19.4675 11.7112 19.16C11.27 17.08 11.27 14.93 11.7087 12.8488ZM12.0175 20.3813C10.56 20.665 9.1325 21.1 7.77 21.7C9.42125 24.0988 12.0825 25.7375 15.1375 26C13.67 24.32 12.625 22.4037 12.0175 20.3813ZM19.9813 20.38C19.375 22.4037 18.3288 24.32 16.8612 26C19.9163 25.7375 22.5788 24.0988 24.2288 21.7C22.8663 21.0988 21.4388 20.665 19.9813 20.38Z" fill="#66AEEE"/>
</g>
<defs>
<clipPath id="clip0_69_107">
<rect width="20" height="20" fill="white" transform="translate(6 6)"/>
</clipPath>
</defs>
</svg>
