<svg width="22" height="22" viewBox="0 0 22 22" fill="none" xmlns="http://www.w3.org/2000/svg">
<g clip-path="url(#clip0_69_79)">
<path d="M11.686 11.7712V14.4569C12.708 14.206 13.1221 13.5894 13.1221 13.114C13.1221 12.6387 12.7067 12.022 11.686 11.7712Z" fill="#66AEEE"/>
<path d="M21.2238 12.5999L20.4201 11.3649C20.3494 11.2562 20.3118 11.1294 20.3118 10.9998C20.3118 10.8701 20.3494 10.7433 20.4201 10.6347L21.2242 9.3991C21.9562 8.27217 21.4608 6.7626 20.2116 6.28526L18.8359 5.75843C18.7148 5.7119 18.6098 5.63129 18.5335 5.52634C18.4573 5.42139 18.4131 5.2966 18.4062 5.16705L18.3305 3.69594C18.2619 2.35679 16.9751 1.42313 15.6809 1.77087L14.2579 2.15325C14.0026 2.22153 13.7296 2.13314 13.5637 1.92745L12.6371 0.781655C11.7933 -0.261404 10.204 -0.259857 9.362 0.782127L8.43547 1.92745C8.35398 2.02818 8.24503 2.10313 8.12182 2.1432C7.99861 2.18328 7.86643 2.18677 7.74127 2.15325L6.31876 1.77087C5.02623 1.4227 3.73734 2.35585 3.66868 3.69594L3.59288 5.16761C3.58616 5.29706 3.54204 5.42178 3.46587 5.52666C3.38969 5.63154 3.28474 5.71208 3.16372 5.75851L1.78795 6.28488C0.537315 6.76376 0.0435217 8.27397 0.775875 9.40009L1.579 10.6342C1.64967 10.743 1.68732 10.8698 1.68741 10.9995C1.68749 11.1292 1.65 11.2561 1.57947 11.3649L0.775875 12.6C0.0438655 13.7235 0.536498 15.2365 1.788 15.7148L3.16376 16.2416C3.28477 16.288 3.38972 16.3686 3.4659 16.4735C3.54207 16.5783 3.58619 16.7031 3.59293 16.8325L3.66864 18.3041C3.73722 19.6417 5.02223 20.5768 6.31872 20.2292L7.74123 19.8463C7.99556 19.7776 8.26858 19.8659 8.4359 20.0726L9.362 21.2179C10.2035 22.2593 11.7923 22.262 12.6376 21.2184L13.5637 20.0726C13.6452 19.9718 13.7541 19.8969 13.8773 19.8567C14.0005 19.8166 14.1327 19.813 14.2579 19.8463L15.6818 20.2296C16.9745 20.5751 18.2618 19.6452 18.3305 18.3041L18.4062 16.833C18.413 16.7034 18.4572 16.5786 18.5334 16.4736C18.6097 16.3687 18.7148 16.2881 18.8359 16.2416L20.2116 15.7152C21.4619 15.2364 21.9562 13.726 21.2238 12.5999ZM14.558 13.1141C14.558 14.3876 13.4847 15.6377 11.6858 15.9266V16.7043C11.6858 17.1008 11.3642 17.4224 10.9678 17.4224C10.5713 17.4224 10.2497 17.1008 10.2497 16.7043V15.9266C8.47762 15.642 7.37754 14.411 7.37754 13.1141C7.37754 12.7177 7.69916 12.3961 8.09559 12.3961C8.49201 12.3961 8.81363 12.7177 8.81363 13.1141C8.81363 13.5894 9.2291 14.2062 10.2497 14.457V11.6185C8.47762 11.3338 7.37754 10.1028 7.37754 8.80596C7.37754 7.49233 8.4973 6.27491 10.2497 5.99342V5.21578C10.2497 4.81935 10.5713 4.49774 10.9678 4.49774C11.3642 4.49774 11.6858 4.81935 11.6858 5.21578V5.99346C13.4579 6.27813 14.558 7.50909 14.558 8.80596C14.558 9.20239 14.2364 9.52401 13.8399 9.52401C13.4435 9.52401 13.1219 9.20239 13.1219 8.80596C13.1219 8.33069 12.7064 7.71388 11.6858 7.46311V10.3016C13.458 10.5863 14.558 11.8172 14.558 13.1141Z" fill="#66AEEE"/>
<path d="M8.81348 8.80586C8.81348 9.28118 9.22894 9.89795 10.2496 10.1487V7.46301C9.22761 7.71386 8.81348 8.33054 8.81348 8.80586Z" fill="#66AEEE"/>
</g>
<defs>
<clipPath id="clip0_69_79">
<rect width="22" height="22" fill="white"/>
</clipPath>
</defs>
</svg>
