<svg width="32" height="32" viewBox="0 0 32 32" fill="none" xmlns="http://www.w3.org/2000/svg">
<path d="M10.4798 3.94672L22.5198 7.94672C30.6132 10.6534 30.6132 15.0667 22.5198 17.7601L18.9465 18.9467L17.7598 22.5201C15.0665 30.6134 10.6398 30.6134 7.94651 22.5201L3.93318 10.4934C2.14651 5.09339 5.07985 2.14672 10.4798 3.94672ZM10.0532 11.1201L15.1198 16.2134C15.3198 16.4134 15.5732 16.5067 15.8265 16.5067C16.0798 16.5067 16.3332 16.4134 16.5332 16.2134C16.9198 15.8267 16.9198 15.1867 16.5332 14.8001L11.4665 9.70672C11.0798 9.32006 10.4398 9.32006 10.0532 9.70672C9.66651 10.0934 9.66651 10.7334 10.0532 11.1201Z" fill="white"/>
</svg>
