<svg width="48" height="48" viewBox="0 0 48 48" fill="none" xmlns="http://www.w3.org/2000/svg">
<path d="M24 24C25.1 24 26.042 23.608 26.826 22.824C27.6087 22.0413 28 21.1 28 20C28 18.9 27.6087 17.958 26.826 17.174C26.042 16.3913 25.1 16 24 16C22.9 16 21.9587 16.3913 21.176 17.174C20.392 17.958 20 18.9 20 20C20 21.1 20.392 22.0413 21.176 22.824C21.9587 23.608 22.9 24 24 24ZM24 43.25C23.7333 43.25 23.4667 43.2 23.2 43.1C22.9333 43 22.7 42.8667 22.5 42.7C17.6333 38.4 14 34.4087 11.6 30.726C9.2 27.042 8 23.6 8 20.4C8 15.4 9.60867 11.4167 12.826 8.45C16.042 5.48333 19.7667 4 24 4C28.2333 4 31.958 5.48333 35.174 8.45C38.3913 11.4167 40 15.4 40 20.4C40 23.6 38.8 27.042 36.4 30.726C34 34.4087 30.3667 38.4 25.5 42.7C25.3 42.8667 25.0667 43 24.8 43.1C24.5333 43.2 24.2667 43.25 24 43.25Z" fill="#66AEEE"/>
</svg>
