<svg width="20" height="20" viewBox="0 0 20 20" fill="none" xmlns="http://www.w3.org/2000/svg">
<path fill-rule="evenodd" clip-rule="evenodd" d="M10 3.33317C6.77834 3.33317 4.16667 5.94484 4.16667 9.1665C4.16667 11.0049 5.28006 12.7231 6.83743 14.0729L9.70528 16.5583C9.87442 16.7049 10.1256 16.7049 10.2947 16.5583L13.1626 14.0729C14.7199 12.7231 15.8333 11.0049 15.8333 9.1665C15.8333 5.94484 13.2217 3.33317 10 3.33317ZM2.5 9.1665C2.5 5.02437 5.85786 1.6665 10 1.6665C14.1421 1.6665 17.5 5.02437 17.5 9.1665C17.5 11.6885 15.9919 13.8263 14.2541 15.3323L11.3863 17.8178C10.5907 18.5073 9.40931 18.5073 8.61373 17.8178L5.74588 15.3323C4.00814 13.8263 2.5 11.6885 2.5 9.1665Z" fill="#66AEEE"/>
<path d="M11.6668 9.16667C11.6668 10.0871 10.9206 10.8333 10.0002 10.8333C9.07969 10.8333 8.3335 10.0871 8.3335 9.16667C8.3335 8.24619 9.07969 7.5 10.0002 7.5C10.9206 7.5 11.6668 8.24619 11.6668 9.16667Z" fill="#66AEEE"/>
</svg>
