<svg width="12" height="7" viewBox="0 0 12 7" fill="none" xmlns="http://www.w3.org/2000/svg">
<path d="M5.83674 6.67008C5.72707 6.67071 5.61835 6.64969 5.51682 6.60822C5.41529 6.56675 5.32294 6.50564 5.24508 6.42841L0.245076 1.42841C0.0881567 1.27149 0 1.05866 0 0.836743C0 0.614825 0.0881567 0.401996 0.245076 0.245076C0.401996 0.0881567 0.614825 0 0.836743 0C1.05866 0 1.27149 0.0881567 1.42841 0.245076L5.83674 4.66174L10.2451 0.25341C10.4045 0.116888 10.6096 0.0455492 10.8193 0.0536501C11.029 0.0617511 11.228 0.148695 11.3764 0.297107C11.5248 0.445519 11.6117 0.644469 11.6198 0.854199C11.6279 1.06393 11.5566 1.26899 11.4201 1.42841L6.42008 6.42841C6.26486 6.58236 6.05536 6.66916 5.83674 6.67008Z" fill="#66AEEE"/>
</svg>
