<svg width="32" height="32" viewBox="0 0 32 32" fill="none" xmlns="http://www.w3.org/2000/svg">
<path d="M22.6667 24C23.0667 24 23.3333 23.8667 23.6 23.6C24.1333 23.0667 24.1333 22.2667 23.6 21.7333L10.2667 8.4C9.73333 7.86667 8.93333 7.86667 8.4 8.4C7.86666 8.93333 7.86666 9.73333 8.4 10.2667L21.7333 23.6C22 23.8667 22.2667 24 22.6667 24Z" fill="#66AEEE"/>
<path d="M9.33341 22.6667C10.1334 22.6667 10.6667 22.1333 10.6667 21.3333V10.6667H21.3334C22.1334 10.6667 22.6667 10.1333 22.6667 9.33333C22.6667 8.53333 22.1334 8 21.3334 8H9.33341C8.53341 8 8.00008 8.53333 8.00008 9.33333V21.3333C8.00008 22.1333 8.53341 22.6667 9.33341 22.6667Z" fill="#66AEEE"/>
</svg>
