<svg width="18" height="18" viewBox="0 0 18 18" fill="none" xmlns="http://www.w3.org/2000/svg">
<path d="M16.9181 7.73654C16.8445 7.72459 16.7699 7.71907 16.6953 7.72004H3.9967L4.27359 7.59125C4.54425 7.46313 4.79049 7.2888 5.00125 7.07609L8.56227 3.51507C9.03126 3.06737 9.11006 2.34716 8.74901 1.80862C8.3288 1.23474 7.52294 1.11014 6.94902 1.53035C6.90265 1.56432 6.8586 1.60135 6.81718 1.64119L0.377724 8.08065C-0.125519 8.58333 -0.125962 9.39876 0.376718 9.90201L0.377724 9.90301L6.81718 16.3425C7.32082 16.8447 8.13626 16.8436 8.63854 16.3399C8.67806 16.3003 8.71496 16.2581 8.74901 16.2137C9.11006 15.6751 9.03126 14.9549 8.56227 14.5072L5.00769 10.9398C4.81874 10.7506 4.60149 10.592 4.36375 10.4697L3.97738 10.2958H16.6245C17.2824 10.3202 17.8596 9.86067 17.9832 9.21399C18.097 8.51189 17.6202 7.85044 16.9181 7.73654Z" fill="#66AEEE"/>
</svg>
