<svg width="32" height="32" viewBox="0 0 32 32" fill="none" xmlns="http://www.w3.org/2000/svg">
<rect width="32" height="32" rx="4" fill="#E9F4FD" fill-opacity="0.5"/>
<path fill-rule="evenodd" clip-rule="evenodd" d="M21.7917 20.4954C22.7929 19.211 23.3356 17.6286 23.3335 16C23.3335 11.952 20.0472 8.66671 16.0002 8.66671C11.9522 8.66671 8.66683 11.952 8.66683 16C8.66683 20.0471 11.9522 23.3334 16.0002 23.3334C16.2362 23.3439 16.459 23.4451 16.6223 23.6159C16.7856 23.7866 16.8767 24.0138 16.8767 24.25C16.8767 24.4863 16.7856 24.7135 16.6223 24.8842C16.459 25.055 16.2362 25.1561 16.0002 25.1667C10.9402 25.1667 6.8335 21.0591 6.8335 16C6.8335 10.941 10.9402 6.83337 16.0002 6.83337C21.0592 6.83337 25.1668 10.941 25.1668 16C25.1693 18.1151 24.4374 20.1654 23.0961 21.8007C23.2468 21.9797 23.3235 22.2094 23.3107 22.443C23.2978 22.6766 23.1962 22.8965 23.0268 23.0577C22.8573 23.219 22.6326 23.3096 22.3987 23.3109C22.1647 23.3122 21.9391 23.2242 21.7678 23.0648L16.4741 17.771L16.4686 17.7729C16.0797 17.8734 15.6688 17.8454 15.2971 17.6931C14.9629 17.5536 14.6775 17.3184 14.4767 17.0171C14.276 16.7157 14.1688 16.3617 14.1688 15.9996C14.1688 15.6375 14.276 15.2835 14.4767 14.9821C14.6775 14.6808 14.9629 14.4455 15.2971 14.306C15.7003 14.1379 16.1505 14.12 16.5657 14.2556C17.0116 14.4003 17.3851 14.7103 17.6094 15.1219C17.8338 15.5334 17.892 16.0153 17.7721 16.4685L17.7712 16.4749L19.1581 17.8618C19.4857 17.3049 19.6603 16.6713 19.6645 16.0252C19.6686 15.3791 19.5019 14.7433 19.1815 14.1823C18.861 13.6213 18.398 13.1548 17.8394 12.8301C17.2808 12.5055 16.6463 12.3341 16.0002 12.3334C13.9762 12.3334 12.3335 13.976 12.3335 16C12.3335 18.0231 13.9762 19.6667 16.0002 19.6667C16.2362 19.6773 16.459 19.7785 16.6223 19.9492C16.7856 20.12 16.8767 20.3471 16.8767 20.5834C16.8767 20.8196 16.7856 21.0468 16.6223 21.2175C16.459 21.3883 16.2362 21.4895 16.0002 21.5C12.9642 21.5 10.5002 19.0351 10.5002 16C10.5002 12.964 12.9642 10.5 16.0002 10.5C19.0352 10.5 21.5002 12.964 21.5002 16C21.5014 17.1422 21.1457 18.2563 20.4827 19.1864L21.7917 20.4954Z" fill="#66AEEE"/>
</svg>
