<svg width="32" height="32" viewBox="0 0 32 32" fill="none" xmlns="http://www.w3.org/2000/svg">
<rect width="32" height="32" rx="4" fill="#E9F4FD" fill-opacity="0.5"/>
<path d="M16 5C11.3599 5 7.58496 8.77498 7.58496 13.415C7.58496 18.055 11.3599 21.83 16 21.83C20.64 21.83 24.415 18.055 24.415 13.415C24.415 8.77498 20.64 5 16 5ZM19.9487 18.85L16 16.9814L12.0512 18.85L12.6081 14.5171L9.61072 11.3391L13.9037 10.5299L16 6.69696L18.0962 10.5298L22.3892 11.339L19.3918 14.5171L19.9487 18.85Z" fill="#66AEEE"/>
<path d="M17.2579 11.6835L15.9999 9.38342L14.7419 11.6835L12.1656 12.1692L13.9644 14.0764L13.6302 16.6767L15.9999 15.5552L18.3696 16.6767L18.0354 14.0764L19.8342 12.1692L17.2579 11.6835ZM10.1216 24.0546C10.6903 23.9721 11.2373 23.7788 11.7316 23.4855V22.1348C11.1635 21.8559 10.6242 21.5218 10.1216 21.1373V24.0546ZM20.2683 23.4855C20.7625 23.7788 21.3095 23.9721 21.8783 24.0546V21.1373C21.3756 21.5218 20.8364 21.8559 20.2683 22.1348V23.4855ZM13.0206 22.6548V27C13.9749 26.8622 14.8524 26.419 15.5396 25.7179L15.9999 25.2483L16.4602 25.7179C17.1474 26.419 18.0249 26.8622 18.9792 27V22.6548C18.029 22.9601 17.0267 23.1191 15.9999 23.1191C14.9731 23.1191 13.9709 22.9601 13.0206 22.6548Z" fill="#66AEEE"/>
</svg>
