<svg width="32" height="32" viewBox="0 0 32 32" fill="none" xmlns="http://www.w3.org/2000/svg">
<rect width="32" height="32" rx="4" fill="#E9F4FD" fill-opacity="0.5"/>
<g clip-path="url(#clip0_69_77)">
<path d="M16.686 16.7712V19.4569C17.708 19.206 18.1221 18.5894 18.1221 18.114C18.1221 17.6387 17.7067 17.022 16.686 16.7712Z" fill="#66AEEE"/>
<path d="M26.2238 17.5999L25.4201 16.3649C25.3494 16.2562 25.3118 16.1294 25.3118 15.9998C25.3118 15.8701 25.3494 15.7433 25.4201 15.6347L26.2242 14.3991C26.9562 13.2722 26.4608 11.7626 25.2116 11.2853L23.8359 10.7584C23.7148 10.7119 23.6098 10.6313 23.5335 10.5263C23.4573 10.4214 23.4131 10.2966 23.4062 10.1671L23.3305 8.69594C23.2619 7.35679 21.9751 6.42313 20.6809 6.77087L19.2579 7.15325C19.0026 7.22153 18.7296 7.13314 18.5637 6.92745L17.6371 5.78165C16.7933 4.7386 15.204 4.74014 14.362 5.78213L13.4355 6.92745C13.354 7.02818 13.245 7.10313 13.1218 7.1432C12.9986 7.18328 12.8664 7.18677 12.7413 7.15325L11.3188 6.77087C10.0262 6.4227 8.73734 7.35585 8.66868 8.69594L8.59288 10.1676C8.58616 10.2971 8.54204 10.4218 8.46587 10.5267C8.38969 10.6315 8.28474 10.7121 8.16372 10.7585L6.78795 11.2849C5.53731 11.7638 5.04352 13.274 5.77588 14.4001L6.579 15.6342C6.64967 15.743 6.68732 15.8698 6.68741 15.9995C6.68749 16.1292 6.65 16.2561 6.57947 16.3649L5.77588 17.6C5.04387 18.7235 5.5365 20.2365 6.788 20.7148L8.16376 21.2416C8.28477 21.288 8.38972 21.3686 8.4659 21.4735C8.54207 21.5783 8.58619 21.7031 8.59293 21.8325L8.66864 23.3041C8.73722 24.6417 10.0222 25.5768 11.3187 25.2292L12.7412 24.8463C12.9956 24.7776 13.2686 24.8659 13.4359 25.0726L14.362 26.2179C15.2035 27.2593 16.7923 27.262 17.6376 26.2184L18.5637 25.0726C18.6452 24.9718 18.7541 24.8969 18.8773 24.8567C19.0005 24.8166 19.1327 24.813 19.2579 24.8463L20.6818 25.2296C21.9745 25.5751 23.2618 24.6452 23.3305 23.3041L23.4062 21.833C23.413 21.7034 23.4572 21.5786 23.5334 21.4736C23.6097 21.3687 23.7148 21.2881 23.8359 21.2416L25.2116 20.7152C26.4619 20.2364 26.9562 18.726 26.2238 17.5999ZM19.558 18.1141C19.558 19.3876 18.4847 20.6377 16.6858 20.9266V21.7043C16.6858 22.1008 16.3642 22.4224 15.9678 22.4224C15.5713 22.4224 15.2497 22.1008 15.2497 21.7043V20.9266C13.4776 20.642 12.3775 19.411 12.3775 18.1141C12.3775 17.7177 12.6992 17.3961 13.0956 17.3961C13.492 17.3961 13.8136 17.7177 13.8136 18.1141C13.8136 18.5894 14.2291 19.2062 15.2497 19.457V16.6185C13.4776 16.3338 12.3775 15.1028 12.3775 13.806C12.3775 12.4923 13.4973 11.2749 15.2497 10.9934V10.2158C15.2497 9.81935 15.5713 9.49774 15.9678 9.49774C16.3642 9.49774 16.6858 9.81935 16.6858 10.2158V10.9935C18.4579 11.2781 19.558 12.5091 19.558 13.806C19.558 14.2024 19.2364 14.524 18.8399 14.524C18.4435 14.524 18.1219 14.2024 18.1219 13.806C18.1219 13.3307 17.7064 12.7139 16.6858 12.4631V15.3016C18.458 15.5863 19.558 16.8172 19.558 18.1141Z" fill="#66AEEE"/>
<path d="M13.8135 13.8059C13.8135 14.2812 14.2289 14.8979 15.2496 15.1487V12.463C14.2276 12.7139 13.8135 13.3305 13.8135 13.8059Z" fill="#66AEEE"/>
</g>
<defs>
<clipPath id="clip0_69_77">
<rect width="22" height="22" fill="white" transform="translate(5 5)"/>
</clipPath>
</defs>
</svg>
